<?xml version="1.0" encoding="utf-8"?>
<!-- Generator: Adobe Illustrator 23.0.1, SVG Export Plug-In . SVG Version: 6.00 Build 0)  -->
<svg version="1.1" id="Layer_1" xmlns="http://www.w3.org/2000/svg" xmlns:xlink="http://www.w3.org/1999/xlink" x="0px" y="0px"
	 viewBox="0 0 500 500" style="enable-background:new 0 0 500 500;" xml:space="preserve">
<style type="text/css">
	.st0{fill:#262626;stroke:#000000;stroke-miterlimit:10;}
	.st1{fill:#92E3A9;}
	.st2{opacity:0.7;}
	.st3{fill:#FFFFFF;}
	.st4{opacity:0.2;fill:#263238;enable-background:new    ;}
	.st5{opacity:0.2;enable-background:new    ;}
	.st6{fill:#FFFFFF;stroke:#263238;stroke-miterlimit:10;}
	.st7{fill:#263238;stroke:#FFFFFF;stroke-miterlimit:10;}
	.st8{opacity:0.2;}
	.st9{fill:#92E3A9;stroke:#263238;stroke-linecap:round;stroke-linejoin:round;stroke-miterlimit:10;}
	.st10{fill:#263238;}
	.st11{clip-path:url(#SVGID_2_);}
	.st12{opacity:0.5;fill:#FFFFFF;enable-background:new    ;}
	.st13{opacity:0.5;}
	.st14{clip-path:url(#SVGID_4_);}
	.st15{fill:none;}
	.st16{fill:none;stroke:#263238;stroke-miterlimit:10;}
	.st17{clip-path:url(#SVGID_6_);fill:#92E3A9;}
	.st18{clip-path:url(#SVGID_8_);}
	.st19{opacity:0.5;clip-path:url(#SVGID_10_);fill:#FFFFFF;enable-background:new    ;}
	.st20{opacity:0.5;clip-path:url(#SVGID_12_);}
	.st21{fill:none;stroke:#263238;stroke-linecap:round;stroke-linejoin:round;stroke-miterlimit:10;}
	.st22{fill:#FFFFFF;stroke:#263238;stroke-linecap:round;stroke-linejoin:round;stroke-miterlimit:10;}
	.st23{fill:#757575;stroke:#263238;stroke-linecap:round;stroke-linejoin:round;stroke-miterlimit:10;}
	.st24{fill:#999999;stroke:#263238;stroke-linecap:round;stroke-linejoin:round;stroke-miterlimit:10;}
	.st25{fill:#BFBFBF;stroke:#263238;stroke-linecap:round;stroke-linejoin:round;stroke-miterlimit:10;}
	.st26{opacity:0.1;fill:#FFFFFF;enable-background:new    ;}
	.st27{clip-path:url(#SVGID_14_);}
</style>
<path class="st0" d="M319.6,452.1l-95.9-3.4c-46.7-1.7-90.6-23-120.7-58.8l-61.7-73.4c-42-50-50.7-120.1-22.1-178.8l4.4-9
	C52.2,69.9,112.7,33.5,178,35.9l95.9,3.4c46.7,1.7,90.6,23,120.7,58.8l61.7,73.4c42,50,50.7,120.1,22.1,178.8l-4.4,9
	C445.4,418,384.9,454.4,319.6,452.1z"/>
<g id="Background_Simple">
	<g>
		<path class="st1" d="M425.9,242.8c0,7.4-0.8,14.8-2.6,22c-0.6,2.4-1.3,4.7-2.1,7c-0.2,0.7-0.5,1.3-0.7,2c-0.2,0.5-0.4,1.1-0.6,1.6
			c-0.1,0.1-0.1,0.3-0.2,0.4c-0.2,0.6-0.4,1.1-0.7,1.7c0,0.1-0.1,0.2-0.1,0.3c-0.2,0.5-0.5,1.1-0.7,1.6c-0.1,0.2-0.2,0.5-0.3,0.7
			c-0.2,0.5-0.4,1-0.7,1.4c-0.2,0.5-0.5,1-0.7,1.5c-0.1,0.2-0.2,0.4-0.3,0.5c-0.2,0.4-0.4,0.9-0.7,1.3c-0.2,0.3-0.4,0.7-0.5,1
			c-0.8,1.5-1.7,3-2.6,4.5c-0.4,0.6-0.7,1.2-1.1,1.8c-0.1,0.1-0.2,0.3-0.3,0.4c-0.4,0.7-0.9,1.4-1.3,2c-0.4,0.5-0.7,1.1-1.1,1.6
			c-0.3,0.5-0.6,1-1,1.4c-0.1,0.1-0.1,0.2-0.2,0.3c-0.3,0.5-0.7,1-1,1.5c-0.4,0.6-0.9,1.2-1.3,1.8c-0.1,0.1-0.2,0.2-0.3,0.4
			c-0.5,0.7-1,1.4-1.5,2c-0.3,0.4-0.6,0.8-0.9,1.2c-0.6,0.7-1.1,1.5-1.7,2.2c-0.5,0.7-1.1,1.4-1.7,2.1c-0.1,0.1-0.1,0.1-0.2,0.2
			c-0.6,0.7-1.1,1.4-1.7,2c-0.2,0.2-0.3,0.4-0.5,0.6c-0.5,0.6-1,1.3-1.6,1.9c-1.5,1.8-3,3.6-4.6,5.3c-3.1,3.6-6.3,7.2-9.6,10.7
			c-2.7,2.9-5.5,5.9-8.3,8.7c-13.5,13.8-28.1,26.7-43.9,37c-2,1.3-4,2.5-6,3.7c-0.7,0.4-1.5,0.9-2.2,1.3c-0.1,0.1-0.3,0.1-0.4,0.2
			c-0.8,0.4-1.5,0.9-2.3,1.3c-0.8,0.4-1.6,0.9-2.4,1.3c-0.4,0.2-0.7,0.4-1.1,0.6c-1.5,0.8-3.1,1.6-4.7,2.3c-0.8,0.4-1.7,0.8-2.5,1.2
			c-0.8,0.4-1.6,0.7-2.4,1c-0.3,0.1-0.6,0.3-1,0.4c-0.7,0.3-1.4,0.6-2.2,0.9c-1.4,0.6-2.8,1.1-4.2,1.6c-0.5,0.2-1.1,0.4-1.6,0.6
			c-0.3,0.1-0.6,0.2-0.9,0.3c-0.5,0.2-1,0.3-1.5,0.5c-0.4,0.1-0.9,0.3-1.3,0.4c0,0,0,0,0,0c-0.9,0.3-1.7,0.5-2.6,0.8
			c-1.4,0.4-2.8,0.8-4.2,1.1c-0.9,0.2-1.8,0.4-2.8,0.7c-0.9,0.2-1.7,0.4-2.6,0.6c-0.1,0-0.1,0-0.2,0c-0.9,0.2-1.8,0.4-2.8,0.5
			c-0.5,0.1-0.9,0.2-1.4,0.2c-0.5,0.1-0.9,0.2-1.4,0.2c-0.4,0.1-0.9,0.1-1.3,0.2c-0.5,0.1-1,0.1-1.6,0.2c-5.5,0.7-11,1-16.5,0.9
			c-0.3,0-0.7,0-1,0c-5-0.1-10-0.5-15-1.1c-0.4,0-0.7-0.1-1.1-0.1c-0.6-0.1-1.3-0.2-1.9-0.3c-0.5-0.1-1-0.2-1.5-0.2
			c-2.1-0.3-4.1-0.7-6.2-1.1c-0.5-0.1-0.9-0.2-1.4-0.3c-1.4-0.3-2.8-0.6-4.1-0.9c-0.9-0.2-1.8-0.4-2.7-0.7c-0.5-0.1-0.9-0.2-1.4-0.4
			c-0.5-0.1-0.9-0.2-1.4-0.4c-1.8-0.5-3.6-1-5.4-1.6c-2.1-0.6-4.2-1.3-6.2-2c-0.7-0.3-1.5-0.5-2.3-0.8c-2.3-0.8-4.7-1.7-7-2.6
			c-0.4-0.2-0.8-0.3-1.3-0.5c-0.3-0.1-0.7-0.3-1-0.4c-0.2-0.1-0.4-0.2-0.7-0.3c-1.5-0.7-3.1-1.5-4.9-2.4c-0.3-0.2-0.6-0.3-0.9-0.5
			c-1.1-0.6-2.2-1.2-3.3-1.8c-2.4-1.3-5-2.8-7.7-4.4c-30.9-18.2-78.3-52.4-89.4-65.3c-0.6-0.7-1.1-1.3-1.7-2
			c-0.4-0.5-0.9-1.1-1.3-1.6c-0.4-0.5-0.7-1-1.1-1.5c-0.3-0.4-0.6-0.9-1-1.3c-0.3-0.4-0.6-0.8-0.9-1.2c0,0,0-0.1-0.1-0.1
			c-0.3-0.5-0.7-1-1-1.6c-0.3-0.5-0.6-1-1-1.5c-0.2-0.2-0.3-0.5-0.4-0.7c-0.3-0.6-0.7-1.1-1-1.7c0,0,0,0,0,0
			c-0.4-0.6-0.7-1.3-1.1-1.9c-0.6-1.1-1.2-2.2-1.7-3.4c-0.1-0.3-0.3-0.6-0.4-0.9c-1.1-2.4-2.1-4.7-2.9-7.2c-0.3-0.9-0.6-1.7-0.8-2.6
			c-0.3-1.1-0.6-2.2-0.9-3.3c-0.1-0.2-0.1-0.4-0.2-0.7c-0.1-0.6-0.3-1.2-0.4-1.8c-0.2-0.8-0.3-1.6-0.5-2.5c0-0.2-0.1-0.4-0.1-0.6
			c-0.1-0.4-0.1-0.9-0.2-1.3c-0.1-0.5-0.1-1-0.2-1.5c0-0.2,0-0.3-0.1-0.5c0-0.4-0.1-0.9-0.1-1.3c0,0,0-0.1,0-0.1
			c0-0.5-0.1-1-0.1-1.6c0-0.1,0-0.1,0-0.1c0-0.5,0-1.1,0-1.6c0-0.2,0-0.4,0-0.6c0-0.3,0-0.6,0-1c0-0.8,0-1.6,0.1-2.4
			c0-0.5,0.1-1.1,0.1-1.6c0.1-1,0.2-2.1,0.4-3.1c0.1-0.5,0.2-1.1,0.3-1.6c0.2-1,0.4-2.1,0.7-3.1c0.7-2.7,1.6-5.4,2.7-7.9
			c0.8-2,1.7-3.8,2.8-5.7c0.1-0.2,0.2-0.3,0.3-0.5c4.2-7.3,9.8-13.8,16.2-19.9c0.7-0.6,1.4-1.3,2.1-1.9c0.7-0.7,1.5-1.3,2.2-2
			c0,0,0.1-0.1,0.1-0.1c1.2-1.1,2.4-2.1,3.6-3.1c1.9-1.6,3.8-3.1,5.8-4.7c0.1-0.1,0.1-0.1,0.2-0.2c1.7-1.3,3.3-2.6,5-3.9
			c2.6-2,5.3-4.1,7.8-6.1c0.7-0.5,1.4-1.1,2-1.6c0.7-0.6,1.5-1.2,2.2-1.8c6.9-5.6,12.9-11.5,18.4-17.5c1.1-1.2,2.1-2.4,3.2-3.5
			c0.5-0.6,1-1.1,1.5-1.7c7.1-8,13.6-16.2,20.9-23.9c1.7-1.8,3.5-3.6,5.4-5.4c1.5-1.5,3.1-2.9,4.7-4.4c1.9-1.6,3.8-3.2,5.8-4.8
			c2.7-2.1,5.6-4.2,8.7-6.1c0.8-0.5,1.5-1,2.3-1.4c77.1-47.9,133.8-32.3,171.7,0c2.9,2.4,5.6,4.9,8.2,7.6c1.6,1.6,3.2,3.2,4.7,4.8
			c0.2,0.2,0.3,0.3,0.5,0.5c1.1,1.1,2.1,2.3,3.1,3.4c0.3,0.3,0.6,0.7,0.9,1c0.4,0.5,0.9,1,1.3,1.5c0.5,0.6,1.1,1.3,1.6,1.9
			c0.3,0.4,0.7,0.8,1,1.2c2.1,2.6,4.1,5.2,6,7.9c0.4,0.5,0.8,1.1,1.1,1.6c2.6,3.7,5.1,7.5,7.4,11.2c0.3,0.5,0.6,1.1,1,1.6
			c0.3,0.5,0.6,1.1,1,1.6c0.3,0.5,0.6,1.1,0.9,1.6c0.3,0.5,0.6,1.1,0.9,1.6c0.3,0.5,0.6,1.1,0.9,1.6c0.3,0.5,0.6,1.1,0.9,1.6
			c0.3,0.5,0.6,1.1,0.8,1.6c0.3,0.5,0.5,1,0.8,1.6c0.3,0.5,0.5,1,0.8,1.5c0.3,0.5,0.5,1,0.8,1.5c1,2,2,4.1,2.9,6c0.4,1,0.9,2,1.3,3
			c1.9,4.4,3.6,8.7,4.9,12.6c0,0,0,0,0,0.1c0.1,0.4,0.3,0.7,0.4,1.1c0.1,0.4,0.3,0.8,0.4,1.1c0.1,0.3,0.2,0.6,0.3,0.9
			c0.1,0.4,0.3,0.9,0.4,1.3c0.1,0.5,0.3,0.9,0.4,1.4c0.3,0.9,0.5,1.7,0.7,2.6c0.2,0.7,0.4,1.5,0.6,2.2c0,0.1,0.1,0.3,0.1,0.4
			c0,0.1,0.1,0.2,0.1,0.3c0.1,0.4,0.2,0.9,0.3,1.3c0.3,1.2,0.5,2.3,0.8,3.5c0.1,0.6,0.3,1.3,0.4,1.9c0,0.1,0,0.2,0.1,0.4
			c0.1,0.6,0.2,1.2,0.3,1.8c0.1,0.8,0.3,1.6,0.4,2.4c0.1,0.6,0.2,1.2,0.3,1.8c0,0.1,0,0.2,0,0.3c0.1,0.4,0.1,0.8,0.2,1.2
			c0,0.3,0.1,0.7,0.1,1c0.1,1.2,0.3,2.5,0.4,3.7c0,0.3,0,0.6,0.1,0.8c0,0.5,0.1,0.9,0.1,1.4c0,0.5,0.1,1,0.1,1.6
			c0,0.4,0,0.8,0.1,1.2c0,0.6,0,1.2,0,1.8C425.9,241.4,425.9,242.1,425.9,242.8z"/>
		<g class="st2">
			<path class="st3" d="M425.9,242.8c0,7.4-0.8,14.8-2.6,22c-0.6,2.4-1.3,4.7-2.1,7c-0.2,0.7-0.5,1.3-0.7,2
				c-0.2,0.5-0.4,1.1-0.6,1.6c-0.1,0.1-0.1,0.3-0.2,0.4c-0.2,0.6-0.4,1.1-0.7,1.7c0,0.1-0.1,0.2-0.1,0.3c-0.2,0.5-0.5,1.1-0.7,1.6
				c-0.1,0.2-0.2,0.5-0.3,0.7c-0.2,0.5-0.4,1-0.7,1.4c-0.2,0.5-0.5,1-0.7,1.5c-0.1,0.2-0.2,0.4-0.3,0.5c-0.2,0.4-0.4,0.9-0.7,1.3
				c-0.2,0.3-0.4,0.7-0.5,1c-0.8,1.5-1.7,3-2.6,4.5c-0.4,0.6-0.7,1.2-1.1,1.8c-0.1,0.1-0.2,0.3-0.3,0.4c-0.4,0.7-0.9,1.4-1.3,2
				c-0.4,0.5-0.7,1.1-1.1,1.6c-0.3,0.5-0.6,1-1,1.4c-0.1,0.1-0.1,0.2-0.2,0.3c-0.3,0.5-0.7,1-1,1.5c-0.4,0.6-0.9,1.2-1.3,1.8
				c-0.1,0.1-0.2,0.2-0.3,0.4c-0.5,0.7-1,1.4-1.5,2c-0.3,0.4-0.6,0.8-0.9,1.2c-0.6,0.7-1.1,1.5-1.7,2.2c-0.5,0.7-1.1,1.4-1.7,2.1
				c-0.1,0.1-0.1,0.1-0.2,0.2c-0.6,0.7-1.1,1.4-1.7,2c-0.2,0.2-0.3,0.4-0.5,0.6c-0.5,0.6-1,1.3-1.6,1.9c-1.5,1.8-3,3.6-4.6,5.3
				c-3.1,3.6-6.3,7.2-9.6,10.7c-2.7,2.9-5.5,5.9-8.3,8.7c-13.5,13.8-28.1,26.7-43.9,37c-2,1.3-4,2.5-6,3.7c-0.7,0.4-1.5,0.9-2.2,1.3
				c-0.1,0.1-0.3,0.1-0.4,0.2c-0.8,0.4-1.5,0.9-2.3,1.3c-0.8,0.4-1.6,0.9-2.4,1.3c-0.4,0.2-0.7,0.4-1.1,0.6
				c-1.5,0.8-3.1,1.6-4.7,2.3c-0.8,0.4-1.7,0.8-2.5,1.2c-0.8,0.4-1.6,0.7-2.4,1c-0.3,0.1-0.6,0.3-1,0.4c-0.7,0.3-1.4,0.6-2.2,0.9
				c-1.4,0.6-2.8,1.1-4.2,1.6c-0.5,0.2-1.1,0.4-1.6,0.6c-0.3,0.1-0.6,0.2-0.9,0.3c-0.5,0.2-1,0.3-1.5,0.5c-0.4,0.1-0.9,0.3-1.3,0.4
				c0,0,0,0,0,0c-0.9,0.3-1.7,0.5-2.6,0.8c-1.4,0.4-2.8,0.8-4.2,1.1c-0.9,0.2-1.8,0.4-2.8,0.7c-0.9,0.2-1.7,0.4-2.6,0.6
				c-0.1,0-0.1,0-0.2,0c-0.9,0.2-1.8,0.4-2.8,0.5c-0.5,0.1-0.9,0.2-1.4,0.2c-0.5,0.1-0.9,0.2-1.4,0.2c-0.4,0.1-0.9,0.1-1.3,0.2
				c-0.5,0.1-1,0.1-1.6,0.2c-5.5,0.7-11,1-16.5,0.9c-0.3,0-0.7,0-1,0c-5-0.1-10-0.5-15-1.1c-0.4,0-0.7-0.1-1.1-0.1
				c-0.6-0.1-1.3-0.2-1.9-0.3c-0.5-0.1-1-0.2-1.5-0.2c-2.1-0.3-4.1-0.7-6.2-1.1c-0.5-0.1-0.9-0.2-1.4-0.3c-1.4-0.3-2.8-0.6-4.1-0.9
				c-0.9-0.2-1.8-0.4-2.7-0.7c-0.5-0.1-0.9-0.2-1.4-0.4c-0.5-0.1-0.9-0.2-1.4-0.4c-1.8-0.5-3.6-1-5.4-1.6c-2.1-0.6-4.2-1.3-6.2-2
				c-0.7-0.3-1.5-0.5-2.3-0.8c-2.3-0.8-4.7-1.7-7-2.6c-0.4-0.2-0.8-0.3-1.3-0.5c-0.3-0.1-0.7-0.3-1-0.4c-0.2-0.1-0.4-0.2-0.7-0.3
				c-1.5-0.7-3.1-1.5-4.9-2.4c-0.3-0.2-0.6-0.3-0.9-0.5c-1.1-0.6-2.2-1.2-3.3-1.8c-2.4-1.3-5-2.8-7.7-4.4
				c-30.9-18.2-78.3-52.4-89.4-65.3c-0.6-0.7-1.1-1.3-1.7-2c-0.4-0.5-0.9-1.1-1.3-1.6c-0.4-0.5-0.7-1-1.1-1.5
				c-0.3-0.4-0.6-0.9-1-1.3c-0.3-0.4-0.6-0.8-0.9-1.2c0,0,0-0.1-0.1-0.1c-0.3-0.5-0.7-1-1-1.6c-0.3-0.5-0.6-1-1-1.5
				c-0.2-0.2-0.3-0.5-0.4-0.7c-0.3-0.6-0.7-1.1-1-1.7c0,0,0,0,0,0c-0.4-0.6-0.7-1.3-1.1-1.9c-0.6-1.1-1.2-2.2-1.7-3.4
				c-0.1-0.3-0.3-0.6-0.4-0.9c-1.1-2.4-2.1-4.7-2.9-7.2c-0.3-0.9-0.6-1.7-0.8-2.6c-0.3-1.1-0.6-2.2-0.9-3.3
				c-0.1-0.2-0.1-0.4-0.2-0.7c-0.1-0.6-0.3-1.2-0.4-1.8c-0.2-0.8-0.3-1.6-0.5-2.5c0-0.2-0.1-0.4-0.1-0.6c-0.1-0.4-0.1-0.9-0.2-1.3
				c-0.1-0.5-0.1-1-0.2-1.5c0-0.2,0-0.3-0.1-0.5c0-0.4-0.1-0.9-0.1-1.3c0,0,0-0.1,0-0.1c0-0.5-0.1-1-0.1-1.6c0-0.1,0-0.1,0-0.1
				c0-0.5,0-1.1,0-1.6c0-1.3,0-2.7,0.1-4c0-0.5,0.1-1.1,0.1-1.6c0.1-1,0.2-2.1,0.4-3.1c0.1-0.5,0.2-1.1,0.3-1.6
				c0.2-1,0.4-2.1,0.7-3.1c0.7-2.7,1.6-5.4,2.7-7.9c0.8-2,1.7-3.8,2.8-5.7c0.1-0.2,0.2-0.3,0.3-0.5c4.2-7.3,9.8-13.8,16.2-19.9
				c0.4-0.3,0.7-0.7,1.1-1c0.3-0.3,0.6-0.6,1-0.9c0.7-0.7,1.5-1.3,2.2-2c0,0,0.1-0.1,0.1-0.1c1.2-1.1,2.4-2.1,3.6-3.1
				c1.9-1.6,3.8-3.1,5.8-4.7c0.1-0.1,0.1-0.1,0.2-0.2c1.7-1.3,3.3-2.6,5-3.9c0.8-0.6,1.7-1.3,2.5-1.9c1.8-1.4,3.6-2.8,5.3-4.1
				c0.7-0.5,1.4-1.1,2-1.6c0.7-0.6,1.5-1.2,2.2-1.8c6.9-5.6,12.9-11.5,18.4-17.5c1.1-1.2,2.1-2.4,3.2-3.5c0.5-0.6,1-1.1,1.5-1.7
				c7.1-8,13.6-16.2,20.9-23.9c1.7-1.8,3.5-3.6,5.4-5.4c1.5-1.5,3.1-2.9,4.7-4.4c1.9-1.6,3.8-3.2,5.8-4.8c2.7-2.1,5.6-4.2,8.7-6.1
				c0.8-0.5,1.5-1,2.3-1.4c77.1-47.9,133.8-32.3,171.7,0c2.9,2.4,5.6,4.9,8.2,7.6c1.6,1.6,3.2,3.2,4.7,4.8c0.2,0.2,0.3,0.3,0.5,0.5
				c1.1,1.1,2.1,2.3,3.1,3.4c0.3,0.3,0.6,0.7,0.9,1c0.4,0.5,0.9,1,1.3,1.5c0.5,0.6,1.1,1.3,1.6,1.9c0.3,0.4,0.7,0.8,1,1.2
				c2.1,2.6,4.1,5.2,6,7.9c0.4,0.5,0.8,1.1,1.1,1.6c2.6,3.7,5.1,7.5,7.4,11.2c0.3,0.5,0.6,1.1,1,1.6c0.3,0.5,0.6,1.1,1,1.6
				c0.3,0.5,0.6,1.1,0.9,1.6c0.3,0.5,0.6,1.1,0.9,1.6c0.3,0.5,0.6,1.1,0.9,1.6c0.3,0.5,0.6,1.1,0.9,1.6c0.3,0.5,0.6,1.1,0.8,1.6
				c0.3,0.5,0.5,1,0.8,1.6c0.3,0.5,0.5,1,0.8,1.5c0.3,0.5,0.5,1,0.8,1.5c1,2,2,4.1,2.9,6c0.4,1,0.9,2,1.3,3
				c1.9,4.4,3.6,8.7,4.9,12.6c0,0,0,0,0,0.1c0.1,0.4,0.3,0.7,0.4,1.1c0.1,0.4,0.3,0.8,0.4,1.1c0.1,0.3,0.2,0.6,0.3,0.9
				c0.1,0.4,0.3,0.9,0.4,1.3c0.1,0.5,0.3,0.9,0.4,1.4c0.3,0.9,0.5,1.7,0.7,2.6c0.2,0.7,0.4,1.5,0.6,2.2c0,0.1,0.1,0.3,0.1,0.4
				c0,0.1,0.1,0.2,0.1,0.3c0.1,0.4,0.2,0.9,0.3,1.3c0.3,1.2,0.5,2.3,0.8,3.5c0.1,0.6,0.3,1.3,0.4,1.9c0,0.1,0,0.2,0.1,0.4
				c0.1,0.6,0.2,1.2,0.3,1.8c0.1,0.8,0.3,1.6,0.4,2.4c0.1,0.6,0.2,1.2,0.3,1.8c0,0.1,0,0.2,0,0.3c0.1,0.4,0.1,0.8,0.2,1.2
				c0,0.3,0.1,0.7,0.1,1c0.1,1.2,0.3,2.5,0.4,3.7c0,0.3,0,0.6,0.1,0.8c0,0.5,0.1,0.9,0.1,1.4c0,0.5,0.1,1,0.1,1.6
				c0,0.4,0,0.8,0.1,1.2c0,0.6,0,1.2,0,1.8C425.9,241.4,425.9,242.1,425.9,242.8z"/>
		</g>
	</g>
</g>
<g id="Plants">
	<path class="st4" d="M78.3,255.5C78.1,255.4,78.2,255.3,78.3,255.5L78.3,255.5z"/>
	<g>
		<path class="st5" d="M150.6,248.7c-0.8,5.3-4.7,9.5-9.7,11.2l-1.9,0.6c-6.9,9.8-19,13.9-29.3,7.9l-3-1.8l-8.4-10c0,0-0.1,0-0.1,0
			c-2.7,0.6-5.7,0.1-7.7-1.7c-0.3,1.7-2.5,2.6-3.9,1.8c-1.4-0.9-1.6-3.2-0.3-4.3c-1.7,1.5-4.3,0.8-6-0.8c-0.1-4.5,0.4-9,1.5-13.4
			c0.7-2.7,1.6-5.4,2.7-7.9c0.8-2,1.7-3.8,2.8-5.7c0.1-0.2,0.2-0.3,0.3-0.5c1.5-2.7,3.2-5.3,5.1-7.7c0.3-0.3,0.6-0.6,1-0.9
			c0.7-0.7,1.5-1.3,2.2-2c0,0,0.1-0.1,0.1-0.1c1.2-1.1,2.4-2.1,3.6-3.1c1.9-1.6,3.8-3.1,5.8-4.7c0.1-0.1,0.1-0.1,0.2-0.2
			c1.7-1.3,3.3-2.6,5-3.9c0.8-0.6,1.7-1.3,2.5-1.9c0.5,0.1,1,0.2,1.5,0.3c2.1,0.7,2.4,2.6,3.9,3.9c1.9,1.7,3.7-1.2,6.7-1.1
			c9,0.3,5.5,9.5,9.9,8.4c19-5,15.8,19.3,7.5,24.6C147.4,239.7,151.6,242.3,150.6,248.7z"/>
		<g>
			<ellipse class="st6" cx="109.8" cy="240.1" rx="32" ry="31.6"/>
			<ellipse class="st7" cx="109.8" cy="238.8" rx="29.2" ry="28.9"/>
		</g>
		<g>
			<g>
				<g>
					<g>
						<g>
							<g>
								<path class="st1" d="M78.4,250.2c-1.8,1.1-2.4,5-0.9,6.7c1.5,1.7,4.2,0.4,4.8-2.2c0.3,0.7,1.1,0.8,1.6,0.2
									c0.3-0.4,0.3-1.1,0.1-1.6c-0.1-0.1-0.1-0.2,0,0c0.9,0.7,2.6-0.1,2.8-1.7c-0.7,4.3,3.2,8,6,5.8c-0.8,1.8,0.3,4.2,1.7,4.6
									c1.5,0.5,3-0.4,4.5-1.4c1.4-1,2.8-2.1,4.4-2.1c1.3-0.1,2.6,0.7,3.9,1.1c4.1,1.4,8.8-0.5,11.9-4.7c2.1,3.5,7.1,2.2,8.5-2.2
									c0.3,2,1.7,3.6,3.3,3.6c1.6,0,3.1-1.5,3.7-3.5v0c0,1.9,1.8,2.9,3,1.6c1.6-1.6,2.6-4.5,1.8-6.9c2.1-0.1,4.1-2.5,4.5-5.4
									c0.3-2.8-1.1-5.7-3.1-6.2c3.5-1.4,6.2-6.2,6.4-11c0.1-4.8-2.4-9.3-5.8-10.5c-1.3-0.4-2.8-0.3-3.9,0.8
									c-0.4-2.8-1.7-5.2-3.5-6.5c-2.9-2-7-0.6-9.2,3.1c1.1-1.9,1.1-4.7,0.2-6.5c-1-1.8-2.9-2.5-4.5-1.7c-0.4-3-2.6-5.1-4.9-4.5
									c-2.2,0.6-4,3.7-3.8,6.7c-0.2-2.4-3.1-3-4.1-1c0.1,0.2,0,0.1,0,0c-1.4-3-4.3-4.5-7-3.6c-2.9,0.9-5.2,4.5-5.6,8.4
									c-2-1.8-4.8-1.7-7,0.2c-2.1,1.9-3.3,5.5-3,8.8c-2.2-2.2-6-1-7.5,2.4s-0.5,8.2,2.1,9.6c-1.8,0.3-3.3,2.6-3.3,5
									c0,2.4,1.6,4.4,3.3,4.4c-1.8,0.2-3.5,2.3-3.7,4.7C75.4,247.3,76.6,249.7,78.4,250.2z"/>
							</g>
						</g>
						<g class="st8">
							<g>
								<path class="st3" d="M107.8,239.1c-0.9-0.7-2-1.1-3.1-0.8s-2.1,1.5-2.3,2.9s0.4,2.9,1.5,3.2c1.3,0.3,2.6-1.1,4-1
									c0.5,0.1,0.9,0.3,1.4,0.4c1.9,0.5,3.8-1.2,5.5-2.8c0.6-0.6,1.2-1.2,1.5-1.9c0.4-0.8,0.5-1.8,0.2-2.5c-0.5-1-1.6-1.1-2.6-0.9
									c-1.9,0.4-3.8,1.5-5.4,3.2c0.1-0.4,0.1-0.8,0.2-1.2L107.8,239.1z"/>
							</g>
							<g>
								<path class="st3" d="M135.7,235.3c-0.5-0.4-1-0.9-1.7-1c-0.6-0.1-1.3,0.1-1.7,0.7c-0.5,0.9-0.2,2.3,0.4,2.9
									c0.7,0.6,1.6,0.8,2.4,0.9c0.9,0.1,2,0.1,2.5-0.9c0.3-0.7,0.1-1.7-0.4-2.2c-0.5-0.5-1.1-0.8-1.7-1L135.7,235.3z"/>
							</g>
							<g>
								<path class="st3" d="M92,219.5c-1.8,1.1-3.2,3.2-3.7,5.7c-0.1,0.7-0.1,1.6,0.4,2c0.3,0.2,0.8,0.1,1.2,0
									c1.7-0.6,3.4-1.2,5.1-1.9c-0.8,0.4-1.7,0.9-2.3,1.7c-0.7,0.8-1.1,2-0.9,3c0.2,1.3,1.3,2,2.3,1.9c1-0.1,2-0.8,2.8-1.6
									c0.9-0.9,1.8-2,1.8-3.4c0-1.4-1.3-2.6-2.2-1.7c2-0.8,3.8-2,5.5-3.5c0.6-0.6,1.2-1.2,1.6-2c0.4-0.8,0.5-1.9,0.2-2.7
									c-1.7-3.9-4,2.1-5.1,2.7C96.9,220.9,94.6,218,92,219.5z"/>
								<path class="st3" d="M83.8,237.3c-0.2,0.8-0.1,1.7,0.4,2.2c0.5,0.5,1.4,0.3,1.6-0.5c-1.1,0.5-2.4,1.1-3.1,2.4
									c-0.7,1.3-0.6,3.4,0.5,3.8c0.7,0.3,1.5-0.2,2.1-0.7c1.9-1.4,3.7-3,5.4-4.8c-0.5,1.5,0.7,3.1,1.9,3.2
									c1.3,0.1,2.5-0.9,3.6-1.8c1.4-1.1,2.9-2.8,2.6-4.7c-0.3-1.7-2-2.3-3.3-1.7c-1.3,0.6-2.3,2-3.3,3.3c0.7-1.4-0.2-3.3-1.5-3.4
									c-1.2-0.1-2.5,0.9-3.2,2.1c1.4-1.1,1.8-3.7-0.1-3.9C86.3,232.6,84.1,235.9,83.8,237.3z"/>
								<path class="st3" d="M122.9,229.1c-1.1-0.4-2.4,0.5-2.7,2c-0.3,1.4,0.5,3,1.6,3.1c-0.8,0.1-1.6,0.7-2.2,1.6
									c-0.3,0.5-0.5,1.1-0.5,1.7c0.1,0.9,0.8,1.4,1.5,1.4c0.7,0,1.4-0.4,2-0.8c-0.7,0.1-1.4,0.3-2,0.8c-0.6,0.6-0.8,1.7-0.3,2.3
									c0.4,0.5,1.1,0.4,1.6,0.1c1.3-0.5,2.4-1.4,3.4-2.6c0.7,1,1.7,1.6,2.8,1.3c1-0.3,2-1.8,1.7-3c-0.2-0.9-1-1.4-1.7-1.5
									c-0.7-0.1-1.5,0.2-2.2,0.6c0.7-0.7,1.5-1.5,1.8-2.6c0.3-1.1-0.3-2.5-1.2-2.4c-1,0.2-1.6,1.9-2.4,2.6
									C123.1,232.5,125,230,122.9,229.1z"/>
								<g>
									<path class="st3" d="M104.8,224.8c-1.2,1.1-1.6,3-1.6,4.8c0.1,1.9,0.7,4,2.1,4.7c1.8,0.9,4.2-1.2,4.6-3.7
										c0.4-2.6-0.9-5-2.6-6.1C107.2,224.5,105.9,223.8,104.8,224.8z"/>
								</g>
								<g>
									<path class="st3" d="M117.7,221.9c0.2,0.2,0.3,0.3,0.5,0.5c-0.8-1.2-2.4-1.3-3.4-0.1c-1,1.1-1,3.3-0.1,4.3
										c0.9,1,2.6,0.8,3.4-0.5c1.3,0.7,3.1,0.3,4-1.2s0.8-4-0.5-4.8c-1.3-0.8-3.2,0.7-3.1,2.5c-0.2-0.2-0.4-0.5-0.5-0.7
										L117.7,221.9z"/>
								</g>
								<g>
									<path class="st3" d="M131.9,224c-0.9,1.2-1.9,2.5-2.3,4.1s0.2,3.6,1.4,3.9c1.2,0.3,2.4-1,3.1-2.4c0.7-1.3,1.2-2.8,0.8-4.2
										c-0.3-1.4-1.9-2.1-2.7-1L131.9,224z"/>
								</g>
								<path class="st3" d="M111.5,215.7c-0.4-1.3-1.9-1.7-2.9-0.8c-1,0.8-1.4,2.6-1,3.9c0.4,1.3,1.5,2.2,2.6,2.2
									c1.4,0.1,3.1-1.4,2.8-3.2c0.6,1,1.7,1.3,2.7,1.1c1-0.2,1.9-0.8,2.8-1.5c1.2-0.9,2.5-2.3,2.4-4.1c-0.1-1.4-1.1-2.4-2.2-2.4
									c-1.1-0.1-2.1,0.6-3,1.6c-0.7,0.7-1.2,1.6-1.9,2.3s-1.7,1-2.4,0.6L111.5,215.7z"/>
							</g>
						</g>
					</g>
				</g>
			</g>
		</g>
	</g>
</g>
<g id="Keyboard">
	<g>
		<g>
			<rect x="166.1" y="263.6" class="st9" width="178.3" height="75.1"/>
			<g>
				<rect x="169.8" y="268.2" class="st6" width="16.8" height="9.3"/>
				<rect x="313.9" y="313.4" class="st6" width="26.4" height="9.3"/>
				<rect x="324" y="279.7" class="st6" width="16.3" height="9.3"/>
				<rect x="169.8" y="302" class="st6" width="16.8" height="9.3"/>
				<rect x="169.8" y="290.8" class="st6" width="13.6" height="9.3"/>
				<g>
					<rect x="169.8" y="279.5" class="st6" width="9.3" height="9.3"/>
					<rect x="181.7" y="279.5" class="st6" width="9.3" height="9.3"/>
					<rect x="193.5" y="279.5" class="st6" width="9.3" height="9.3"/>
					<rect x="205.4" y="279.5" class="st6" width="9.3" height="9.3"/>
					<rect x="217.2" y="279.5" class="st6" width="9.3" height="9.3"/>
					<rect x="229.1" y="279.5" class="st6" width="9.3" height="9.3"/>
					<rect x="240.9" y="279.5" class="st6" width="9.3" height="9.3"/>
					<rect x="252.8" y="279.5" class="st6" width="9.3" height="9.3"/>
					<rect x="264.7" y="279.5" class="st6" width="9.3" height="9.3"/>
					<rect x="276.5" y="279.5" class="st6" width="9.3" height="9.3"/>
					<rect x="288.4" y="279.5" class="st6" width="9.3" height="9.3"/>
					<rect x="300.2" y="279.5" class="st6" width="9.3" height="9.3"/>
					<rect x="312.1" y="279.5" class="st6" width="9.3" height="9.3"/>
				</g>
				<g>
					<rect x="169.8" y="324.9" class="st6" width="9.3" height="9.3"/>
					<rect x="181.7" y="324.9" class="st6" width="9.3" height="9.3"/>
					<rect x="193.5" y="324.9" class="st6" width="9.3" height="9.3"/>
					<rect x="205.4" y="324.9" class="st6" width="11.3" height="9.3"/>
					<rect x="219.3" y="324.9" class="st6" width="56.7" height="9.3"/>
					<rect x="295.1" y="324.9" class="st6" width="9.3" height="9.3"/>
					<rect x="306.9" y="324.9" class="st6" width="9.3" height="9.3"/>
					<rect x="318.8" y="324.9" class="st6" width="9.3" height="9.3"/>
					<rect x="278.3" y="324.9" class="st6" width="14.4" height="9.3"/>
					<rect x="331" y="324.9" class="st6" width="9.3" height="9.3"/>
				</g>
				<g>
					<rect x="186" y="290.8" class="st6" width="9.3" height="9.3"/>
					<rect x="197.9" y="290.8" class="st6" width="9.3" height="9.3"/>
					<rect x="209.7" y="290.8" class="st6" width="9.3" height="9.3"/>
					<rect x="221.6" y="290.8" class="st6" width="9.3" height="9.3"/>
					<rect x="233.5" y="290.8" class="st6" width="9.3" height="9.3"/>
					<rect x="245.3" y="290.8" class="st6" width="9.3" height="9.3"/>
					<rect x="257.2" y="290.8" class="st6" width="9.3" height="9.3"/>
					<rect x="269" y="290.8" class="st6" width="9.3" height="9.3"/>
					<rect x="280.9" y="290.8" class="st6" width="9.3" height="9.3"/>
					<rect x="292.7" y="290.8" class="st6" width="9.3" height="9.3"/>
					<rect x="304.6" y="290.8" class="st6" width="9.3" height="9.3"/>
					<rect x="316.4" y="290.8" class="st6" width="9.3" height="9.3"/>
					<polygon class="st6" points="340.3,290.8 340.3,311.4 331,311.4 331,300.1 328.3,300.1 328.3,290.8 					"/>
				</g>
				<g>
					<rect x="188.7" y="302.1" class="st6" width="9.3" height="9.3"/>
					<rect x="200.6" y="302.1" class="st6" width="9.3" height="9.3"/>
					<rect x="212.5" y="302.1" class="st6" width="9.3" height="9.3"/>
					<rect x="224.3" y="302.1" class="st6" width="9.3" height="9.3"/>
					<rect x="236.2" y="302.1" class="st6" width="9.3" height="9.3"/>
					<rect x="248" y="302.1" class="st6" width="9.3" height="9.3"/>
					<rect x="259.9" y="302.1" class="st6" width="9.3" height="9.3"/>
					<rect x="271.7" y="302.1" class="st6" width="9.3" height="9.3"/>
					<rect x="283.6" y="302.1" class="st6" width="9.3" height="9.3"/>
					<rect x="295.4" y="302.1" class="st6" width="9.3" height="9.3"/>
					<rect x="307.3" y="302.1" class="st6" width="9.3" height="9.3"/>
					<rect x="319.2" y="302.1" class="st6" width="9.3" height="9.3"/>
				</g>
				<g>
					<rect x="183.7" y="313.4" class="st6" width="9.3" height="9.3"/>
					<rect x="195.6" y="313.4" class="st6" width="9.3" height="9.3"/>
					<rect x="207.4" y="313.4" class="st6" width="9.3" height="9.3"/>
					<rect x="219.3" y="313.4" class="st6" width="9.3" height="9.3"/>
					<rect x="231.1" y="313.4" class="st6" width="9.3" height="9.3"/>
					<rect x="243" y="313.4" class="st6" width="9.3" height="9.3"/>
					<rect x="254.8" y="313.4" class="st6" width="9.3" height="9.3"/>
					<rect x="266.7" y="313.4" class="st6" width="9.3" height="9.3"/>
					<rect x="278.6" y="313.4" class="st6" width="9.3" height="9.3"/>
					<rect x="290.4" y="313.4" class="st6" width="9.3" height="9.3"/>
					<rect x="302.3" y="313.4" class="st6" width="9.3" height="9.3"/>
				</g>
				<g>
					<rect x="188.7" y="268.7" class="st6" width="9.3" height="9.3"/>
					<rect x="200.6" y="268.7" class="st6" width="9.3" height="9.3"/>
					<rect x="212.5" y="268.7" class="st6" width="9.3" height="9.3"/>
					<rect x="224.3" y="268.7" class="st6" width="9.3" height="9.3"/>
					<rect x="236.2" y="268.7" class="st6" width="9.3" height="9.3"/>
					<rect x="248" y="268.7" class="st6" width="9.3" height="9.3"/>
					<rect x="259.9" y="268.7" class="st6" width="9.3" height="9.3"/>
					<rect x="271.7" y="268.7" class="st6" width="9.3" height="9.3"/>
					<rect x="283.6" y="268.7" class="st6" width="9.3" height="9.3"/>
					<rect x="295.4" y="268.7" class="st6" width="9.3" height="9.3"/>
					<rect x="307.3" y="268.7" class="st6" width="9.3" height="9.3"/>
					<rect x="319.2" y="268.7" class="st6" width="9.3" height="9.3"/>
					<rect x="331" y="268.7" class="st6" width="9.3" height="9.3"/>
				</g>
				<rect x="169.8" y="313.4" class="st6" width="11.2" height="9.3"/>
			</g>
		</g>
		<polygon class="st10" points="166.1,264.1 169.8,262.8 342,262.8 344.5,264.1 		"/>
	</g>
</g>
<g id="Hands">
	<g>
		<path class="st5" d="M293.4,392.9l-3.6-21.8c-0.8-3.3-2.5-6.2-4.9-8.6c-7.2-7-16.7-14.1-17.2-23.2c-0.6-13.9-2.8-13.5-2.6-17
			c0-0.1,1.1-1.7,2.5-5.1c0.4-1.1,0.7-2.8,1.1-4.1c0.3-1.4,1.7-2.4,3.1-2.2c1,0.1,1.9,0.6,2.6,1.2c1.3,1.3,1.9,3.2,2,5
			c0.1,1.8-0.4,3.7-0.8,5.5c1.3,2.9,1.9,6.4,2.3,9.6c0.8-2.6,1.5-5.1,2.3-7.7c0.2-0.1,0.1-0.3,0.3-0.4c-1.2-2.5-0.2-2.4-2.5-7.9
			c-3.9-9.3-8.2-18.2-11.3-29.9c-0.2-0.9-0.2-2.4,0.1-3.3c1.1-3.3,4.6-2.6,6.1-0.6c0.4,0.5,0.7,1.1,0.9,1.7c1.6,4.2,5,10.6,7.4,14.3
			l8.4,12.8c0,0,2.9-2.4,3.4-3.5l0,0c0.4-1.1,0.7-9.8,0.7-9.8s-0.7,1.6-2.1,1.5c-1.1-0.1-3.2,0.5-4.8-1.2c-1.3-1.4-1.3-3.5-0.1-5.1
			l3.8-5.1c0,0,2.6-2.2,6-0.7c3.4,1.5,6.7,4.7,6.7,4.7s3.2-0.2,5.9,1.1c2.7,1.3,5.5,5,5.5,5s3.1,0.2,4.6,1.2
			c0.4,0.3,5.2,7.7,3.4,13.6c-1,3.5-1.7,8.5-2.1,9.9l-2.4,34.1l4.8,22.4l-10.2,5.7c-3.7,2.1-7.7,3.8-11.7,5.2L293.4,392.9z"/>
		<g>
			<g>
				<g>
					<g>
						<g>
							<g>
								<path id="XMLID_2_" class="st3" d="M322.3,353.1l0.1-34.2c0.4-1.4,0.7-6.5,1.5-10c1.3-5.9-3.9-13.1-4.3-13.3
									c-1.5-0.9-4.6-0.9-4.6-0.9s-3.1-3.5-5.9-4.6c-2.8-1.1-5.9-0.7-5.9-0.7s-3.5-3-7-4.3c-3.5-1.3-5.9,1.1-5.9,1.1l-3.5,5.4
									c-1,1.6-0.9,3.7,0.5,5c1.7,1.6,3.8,0.9,4.8,0.9c1.5,0,2-1.7,2-1.7s0.4,8.7,0,9.8l0,0c-0.4,1.1-3.1,3.7-3.1,3.7l-9.2-12.2
									c-2.7-3.5-6.5-9.7-8.3-13.7c-0.3-0.6-0.6-1.1-1-1.6c-1.6-1.8-5.1-2.4-6,1c-0.2,0.9-0.2,2.4,0.1,3.3
									c3.9,11.4,8.8,20.1,13.3,29.1c2.7,5.3,1.7,5.3,3,7.7c-0.2,0.1-0.1,0.3-0.2,0.4c-0.7,2.6-1.1,5.2-1.8,7.8
									c-0.6-3.1-1.5-6.6-3-9.4c0.3-1.8,0.6-3.7,0.4-5.5c-0.2-1.8-0.9-3.7-2.3-4.9c-0.7-0.6-1.7-1-2.7-1.1c-1.5-0.1-2.8,1-3,2.4
									c-0.2,1.4-0.4,3-0.8,4.2c-1.2,3.5-2.1,5.1-2.1,5.2c0,3.4,2.1,2.9,3.7,16.8c1.2,10.8,15.1,17.9,22.7,25.7l8.1,25.4
									c9.4-3.8,18.3-8.6,26.9-14.1L322.3,353.1z"/>
							</g>
							<g>
								<defs>
									<path id="SVGID_1_" d="M322.3,353.1l0.1-34.2c0.4-1.4,0.7-6.5,1.5-10c1.3-5.9-3.9-13.1-4.3-13.3c-1.5-0.9-4.6-0.9-4.6-0.9
										s-3.1-3.5-5.9-4.6c-2.8-1.1-5.9-0.7-5.9-0.7s-3.5-3-7-4.3c-3.5-1.3-5.9,1.1-5.9,1.1l-3.5,5.4c-1,1.6-0.9,3.7,0.5,5
										c1.7,1.6,3.8,0.9,4.8,0.9c1.5,0,2-1.7,2-1.7s0.4,8.7,0,9.8l0,0c-0.4,1.1-3.1,3.7-3.1,3.7l-9.2-12.2
										c-2.7-3.5-6.5-9.7-8.3-13.7c-0.3-0.6-0.6-1.1-1-1.6c-1.6-1.8-5.1-2.4-6,1c-0.2,0.9-0.2,2.4,0.1,3.3
										c3.9,11.4,8.8,20.1,13.3,29.1c2.7,5.3,1.7,5.3,3,7.7c-0.2,0.1-0.1,0.3-0.2,0.4c-0.7,2.6-1.1,5.2-1.8,7.8
										c-0.6-3.1-1.5-6.6-3-9.4c0.3-1.8,0.6-3.7,0.4-5.5c-0.2-1.8-0.9-3.7-2.3-4.9c-0.7-0.6-1.7-1-2.7-1.1c-1.5-0.1-2.8,1-3,2.4
										c-0.2,1.4-0.4,3-0.8,4.2c-1.2,3.5-2.1,5.1-2.1,5.2c0,3.4,2.1,2.9,3.7,16.8c1.2,10.8,15.1,17.9,22.7,25.7l8.1,25.4
										c9.4-3.8,18.3-8.6,26.9-14.1L322.3,353.1z"/>
								</defs>
								<clipPath id="SVGID_2_">
									<use xlink:href="#SVGID_1_"  style="overflow:visible;"/>
								</clipPath>
								<g class="st11">
									<g>
										<path class="st1" d="M318.3,306.6c0.4-1,0.9-2,1.8-2.7s2.3-0.7,3,0.1c-0.6-1.8-1.2-3.5-1.8-5.3c-0.5-1.3-1.1-2.7-2.1-3.6
											c-1.1-0.9-2.9-1.1-3.9,0c0.7,4,0.7,8.2,0.2,12.2c-0.3,2.2-0.7,4.7,0.8,6.4c0.4,0.3,1.1-0.3,0.9-0.7
											c-0.1-0.2-0.6-0.2-0.8-0.2C316.8,310.7,317.5,308.6,318.3,306.6z"/>
										<path class="st1" d="M318.3,306.6c0.4-1,0.9-2,1.8-2.7s2.3-0.7,3,0.1c-0.6-1.8-1.2-3.5-1.8-5.3c-0.5-1.3-1.1-2.7-2.1-3.6
											c-1.1-0.9-2.9-1.1-3.9,0c0.7,4,0.7,8.2,0.2,12.2c-0.3,2.2-0.7,4.7,0.8,6.4c0.4,0.3,1.1-0.3,0.9-0.7
											c-0.1-0.2-0.6-0.2-0.8-0.2C316.8,310.7,317.5,308.6,318.3,306.6z"/>
										<path class="st12" d="M318.3,306.6c0.4-1,0.9-2,1.8-2.7s2.3-0.7,3,0.1c-0.6-1.8-1.2-3.5-1.8-5.3c-0.5-1.3-1.1-2.7-2.1-3.6
											c-1.1-0.9-2.9-1.1-3.9,0c0.7,4,0.7,8.2,0.2,12.2c-0.3,2.2-0.7,4.7,0.8,6.4c0.4,0.3,1.1-0.3,0.9-0.7
											c-0.1-0.2-0.6-0.2-0.8-0.2C316.8,310.7,317.5,308.6,318.3,306.6z"/>
									</g>
									<g>
										<path class="st1" d="M306,303c0.1,1.5,0,3,0.4,4.4c0.4,1.4,1.2,2.8,2.5,3.6c-0.8-2.9-0.4-5.9,0.1-8.9
											c0.3-1.8,0.5-3.6,0.8-5.4c0.1-0.6,0.2-1.3,0.5-1.8c0.4-0.5,1.1-0.9,1.6-0.6c-0.8,0.5-1.8-0.2-2.2-0.9
											c-0.5-0.8-0.6-1.7-1.2-2.4c-1-1.3-3.2-1.6-4.8-1.3C304.1,294.2,305.8,298.4,306,303z"/>
										<g>
											<path class="st1" d="M306,303c0.1,1.5,0,3,0.4,4.4c0.4,1.4,1.2,2.8,2.5,3.6c-0.8-2.9-0.4-5.9,0.1-8.9
												c0.3-1.8,0.5-3.6,0.8-5.4c0.1-0.6,0.2-1.3,0.5-1.8c0.4-0.5,1.1-0.9,1.6-0.6c-0.8,0.5-1.8-0.2-2.2-0.9
												c-0.5-0.8-0.6-1.7-1.2-2.4c-1-1.3-3.2-1.6-4.8-1.3C304.1,294.2,305.8,298.4,306,303z"/>
										</g>
										<g class="st13">
											<path class="st3" d="M306,303c0.1,1.5,0,3,0.4,4.4c0.4,1.4,1.2,2.8,2.5,3.6c-0.8-2.9-0.4-5.9,0.1-8.9
												c0.3-1.8,0.5-3.6,0.8-5.4c0.1-0.6,0.2-1.3,0.5-1.8c0.4-0.5,1.1-0.9,1.6-0.6c-0.8,0.5-1.8-0.2-2.2-0.9
												c-0.5-0.8-0.6-1.7-1.2-2.4c-1-1.3-3.2-1.6-4.8-1.3C304.1,294.2,305.8,298.4,306,303z"/>
										</g>
									</g>
									<g>
										<g>
											<path class="st1" d="M293.3,291c-0.5-0.4-0.7-1-0.8-1.6c-0.1-0.6-0.4-1.3-0.9-1.6c-2.4,1.5-1.1,5.9-3.5,7.4
												c-0.5,0.3-1.1,0.4-1.3,0.9c-0.2,0.4-0.1,1,0.3,1.4c0.3,0.4,0.8,0.5,1.3,0.6c1.9,0.3,3.9-0.6,5.1-2.2
												c0.9-1.3,1.6-3.4,1.1-4.9C294.2,291.2,293.7,291.3,293.3,291z"/>
											<path class="st1" d="M268.6,320c0,0.2-0.1,0.4,0.1,0.5c0.2,0.2,0.5-0.1,0.6-0.3c1-1.4,3-2.1,4.6-1.5c0.6,0,0.8-1,0.4-1.4
												c-0.4-0.5-1.1-0.6-1.7-0.6c-0.6,0-1.3,0-1.8-0.3c-0.6-0.4-0.9-1.2-0.7-1.9C269.6,316.3,269.1,318.1,268.6,320z"/>
										</g>
										<g class="st13">
											<path class="st3" d="M293.3,291c-0.5-0.4-0.7-1-0.8-1.6c-0.1-0.6-0.4-1.3-0.9-1.6c-2.4,1.5-1.1,5.9-3.5,7.4
												c-0.5,0.3-1.1,0.4-1.3,0.9c-0.2,0.4-0.1,1,0.3,1.4c0.3,0.4,0.8,0.5,1.3,0.6c1.9,0.3,3.9-0.6,5.1-2.2
												c0.9-1.3,1.6-3.4,1.1-4.9C294.2,291.2,293.7,291.3,293.3,291z"/>
											<path class="st3" d="M268.6,320c0,0.2-0.1,0.4,0.1,0.5c0.2,0.2,0.5-0.1,0.6-0.3c1-1.4,3-2.1,4.6-1.5c0.6,0,0.8-1,0.4-1.4
												c-0.4-0.5-1.1-0.6-1.7-0.6c-0.6,0-1.3,0-1.8-0.3c-0.6-0.4-0.9-1.2-0.7-1.9C269.6,316.3,269.1,318.1,268.6,320z"/>
										</g>
									</g>
									<g>
										<path class="st1" d="M300.1,290.5c-1.4-0.2-2.8-0.2-4-0.9c-1.5-0.9-2.5-2.7-4.2-2.8c-1.5-0.1-2.6,1.3-3.5,2.6
											c-0.1-1.9,1.3-3.6,3-4.4c1.8-0.7,3.8-0.5,5.5,0.2c1.8,0.7,3.3,1.8,4.8,3c0.6,0.5,1.2,0.9,1.6,1.6
											C305.4,292.8,301.3,290.6,300.1,290.5z"/>
										<path class="st12" d="M300.1,290.5c-1.4-0.2-2.8-0.2-4-0.9c-1.5-0.9-2.5-2.7-4.2-2.8c-1.5-0.1-2.6,1.3-3.5,2.6
											c-0.1-1.9,1.3-3.6,3-4.4c1.8-0.7,3.8-0.5,5.5,0.2c1.8,0.7,3.3,1.8,4.8,3c0.6,0.5,1.2,0.9,1.6,1.6
											C305.4,292.8,301.3,290.6,300.1,290.5z"/>
									</g>
								</g>
							</g>
							<g>
								<defs>
									<path id="SVGID_3_" d="M322.3,353.1l0.1-34.2c0.4-1.4,0.7-6.5,1.5-10c1.3-5.9-3.9-13.1-4.3-13.3c-1.5-0.9-4.6-0.9-4.6-0.9
										s-3.1-3.5-5.9-4.6c-2.8-1.1-5.9-0.7-5.9-0.7s-3.5-3-7-4.3c-3.5-1.3-5.9,1.1-5.9,1.1l-3.5,5.4c-1,1.6-0.9,3.7,0.5,5
										c1.7,1.6,3.8,0.9,4.8,0.9c1.5,0,2-1.7,2-1.7s0.4,8.7,0,9.8l0,0c-0.4,1.1-3.1,3.7-3.1,3.7l-9.2-12.2
										c-2.7-3.5-6.5-9.7-8.3-13.7c-0.3-0.6-0.6-1.1-1-1.6c-1.6-1.8-5.1-2.4-6,1c-0.2,0.9-0.2,2.4,0.1,3.3
										c3.9,11.4,8.8,20.1,13.3,29.1c2.7,5.3,1.7,5.3,3,7.7c-0.2,0.1-0.1,0.3-0.2,0.4c-0.7,2.6-1.1,5.2-1.8,7.8
										c-0.6-3.1-1.5-6.6-3-9.4c0.3-1.8,0.6-3.7,0.4-5.5c-0.2-1.8-0.9-3.7-2.3-4.9c-0.7-0.6-1.7-1-2.7-1.1c-1.5-0.1-2.8,1-3,2.4
										c-0.2,1.4-0.4,3-0.8,4.2c-1.2,3.5-2.1,5.1-2.1,5.2c0,3.4,2.1,2.9,3.7,16.8c1.2,10.8,15.1,17.9,22.7,25.7l8.1,25.4
										c9.4-3.8,18.3-8.6,26.9-14.1L322.3,353.1z"/>
								</defs>
								<clipPath id="SVGID_4_">
									<use xlink:href="#SVGID_3_"  style="overflow:visible;"/>
								</clipPath>
								<g class="st14">
									<path class="st1" d="M275.9,334.4c0.1-0.2,0.2-0.3,0.3-0.5C276,334,275.9,334.1,275.9,334.4z"/>
									<path class="st1" d="M278.2,322.4c-0.2-1.9,0.1-3.8,0-5.7c-0.1-1.9-0.6-3.9-2-5.2c-2-1.9-7.5-0.9-5.6,2.7
										c0.5,1,1.8,1.5,2.8,1.1c1-0.4,1.5-1.8,1-2.8c2.2,3.3,2,8.1-0.5,11.3c2.8,2.5,3.7,6.9,2.2,10.2c0.3-0.3,0.9-0.3,1.3,0
										c0.5,0.4,0.7,1.1,1,1.7c0.3,0.6,0.8,1.3,1.5,1.2c0.9-2.3,0.6-4.9,0-7.3C279.3,327.2,278.4,324.8,278.2,322.4z"/>
									<path class="st1" d="M298.2,286.5c-1.1-0.8-2.3-1.4-3.7-1.5L298.2,286.5z"/>
									<path class="st1" d="M307.3,310.7c-0.3-1.3-0.9-2.5-1.3-3.8c-0.8-3-0.3-6.3-0.7-9.4c-0.5-4-2.6-7.8-5.7-10.4l-1.4-0.6
										c1.3,1,2.3,2.4,2.8,4.1c1.1,3.7,1.4,7.5,1.9,11.4c0.7,5.9,1.8,11.7,3.2,17.5C307.1,316.6,308,313.6,307.3,310.7z"/>
									<path class="st1" d="M292.6,297c1-0.8,1.5-2,1.6-3.2c0.1-1.1,0-2.2-0.1-3.3c-0.1,0.5-0.7,0.9-1.2,0.7
										c-0.7-0.2-1.1-0.8-1.5-1.3c-0.1,0.3-0.2,0.6-0.3,1c0-0.2-0.1-0.3-0.1-0.5l-0.4,0.5c0.5,1.6,1.1,3.4,0.2,4.8
										c-0.4,0.7-1.1,1.2-1.7,1.6C290.2,297.9,291.7,297.7,292.6,297z"/>
									<path class="st1" d="M294.1,290.2c0,0.1,0,0.3,0,0.4C294.2,290.4,294.2,290.3,294.1,290.2z"/>
									<path class="st1" d="M290.1,305.8c-2.7-5.3-5.4-10.7-8.4-15.8c-1.7-3-3.6-6-5.9-8.6c-1-1.2-4-3.8-5.6-2.1
										c-1.1,1.2,0.3,3.3-1,4.6c0.3,0,1.8-0.1,2,0.1c3.4,4.2,5.3,9.6,5.2,15c1.1-0.9,2.6,0.3,3.4,1.4c5.2,6.7,10.1,13.7,14.7,21
										c-0.9-3.2-0.9-6.6-1.8-9.8C292,309.5,291,307.7,290.1,305.8z"/>
									<path class="st1" d="M321.6,318.8c1.3-3.5,2.3-7,2.4-10.7c0.1-3.3-0.7-6.8-2.4-9.7c-0.4-0.7-2.3-3.7-3.3-3.4
										c-1.8,0.4,0.6,3.6,1,4.4c1.6,3,3.2,6.1,3.1,9.5c-0.1,2.6-1.2,5-2,7.5c-0.6,1.7-1.1,3.5-1.1,5.3c-0.1,0.2-0.3,0.4-0.4,0.6
										c-1.2,1.6-2.9,2.9-4.9,3.2c0.7-2.3,1.5-4.6,2.2-6.9c0.3-0.8,0.4-1.9-0.1-2.5c0.2-0.3,0.2-0.6,0.2-1c0-0.6-0.4-1.2-0.7-1.8
										c-1-2.2-0.7-4.8-0.4-7.3c0.3-3,0.4-6.1-0.5-9s-2.9-5.6-5.8-6.5c0.2,0.3,0.5,0.5,0.7,0.8l-1-0.7c0.6,1.3,1.2,2.5,1.8,3.8
										c-0.2,0.3-0.4,0.6-0.7,1c1-0.5,2.3,0.2,2.7,1.3c0.5,1,0.3,2.2,0.2,3.3c-0.6,6.3-0.3,12.6,0.9,18.8
										c-0.1,1.4-0.4,2.9-1.1,4.1c-0.8,1.3-2.3,2.3-3.9,2.1c0.3-1.5-0.2-3.2-1.5-4.1c-1.6,2.2-0.6,5.5-0.4,8
										c0.4,3.7,1,7.4,1.8,11.1c0.2-3.2,0.9-6.3,2-9.3c0.8,3.1,1.7,6.1,2.5,9.2c0-0.9,0.1-1.7,0.5-2.5s1.3-1.3,2.1-1
										c0.7,0.2,1,0.9,1.3,1.6c2.2,5.2,2.7,11.2,1.6,16.7c1,0.6,2.4-0.1,3-1.2c0.6-1,0.6-2.3,0.5-3.5
										C321.9,339.4,321.7,329.1,321.6,318.8z"/>
									<path class="st1" d="M295.4,322.1c-0.5,0.9,1.5,4.3,1.9,5.1c1.7,4.2,3.4,8.3,5.1,12.5c-0.6-5.5-1.9-10.9-4-16
										C298,322.8,296.3,320.3,295.4,322.1z"/>
									<path class="st1" d="M298,300c-0.3,0.4-0.7,1-1.2,0.8c-0.5-0.1-0.5-0.8-0.5-1.3c0-2.9,0.1-5.8,0.1-8.7
										c-2.3,1.7-2,3.9-2.2,6.4c-0.1,1.4,0.3,8.4-0.7,9.2c2.3-2,4.3-4.4,5.8-7C298.9,299.1,298.3,299.6,298,300z"/>
									<g class="st13">
										<path class="st3" d="M275.9,334.4c0.1-0.2,0.2-0.3,0.3-0.5C276,334,275.9,334.1,275.9,334.4z"/>
										<path class="st3" d="M278.2,322.4c-0.2-1.9,0.1-3.8,0-5.7c-0.1-1.9-0.6-3.9-2-5.2c-2-1.9-7.5-0.9-5.6,2.7
											c0.5,1,1.8,1.5,2.8,1.1c1-0.4,1.5-1.8,1-2.8c2.2,3.3,2,8.1-0.5,11.3c2.8,2.5,3.7,6.9,2.2,10.2c0.3-0.3,0.9-0.3,1.3,0
											c0.5,0.4,0.7,1.1,1,1.7c0.3,0.6,0.8,1.3,1.5,1.2c0.9-2.3,0.6-4.9,0-7.3C279.3,327.2,278.4,324.8,278.2,322.4z"/>
										<path class="st3" d="M298.2,286.5c-1.1-0.8-2.3-1.4-3.7-1.5L298.2,286.5z"/>
										<path class="st3" d="M307.3,310.7c-0.3-1.3-0.9-2.5-1.3-3.8c-0.8-3-0.3-6.3-0.7-9.4c-0.5-4-2.6-7.8-5.7-10.4l-1.4-0.6
											c1.3,1,2.3,2.4,2.8,4.1c1.1,3.7,1.4,7.5,1.9,11.4c0.7,5.9,1.8,11.7,3.2,17.5C307.1,316.6,308,313.6,307.3,310.7z"/>
										<path class="st3" d="M292.6,297c1-0.8,1.5-2,1.6-3.2c0.1-1.1,0-2.2-0.1-3.3c-0.1,0.5-0.7,0.9-1.2,0.7
											c-0.7-0.2-1.1-0.8-1.5-1.3c-0.1,0.3-0.2,0.6-0.3,1c0-0.2-0.1-0.3-0.1-0.5l-0.4,0.5c0.5,1.6,1.1,3.4,0.2,4.8
											c-0.4,0.7-1.1,1.2-1.7,1.6C290.2,297.9,291.7,297.7,292.6,297z"/>
										<path class="st3" d="M294.1,290.2c0,0.1,0,0.3,0,0.4C294.2,290.4,294.2,290.3,294.1,290.2z"/>
										<path class="st3" d="M290.1,305.8c-2.7-5.3-5.4-10.7-8.4-15.8c-1.7-3-3.6-6-5.9-8.6c-1-1.2-4-3.8-5.6-2.1
											c-1.1,1.2,0.3,3.3-1,4.6c0.3,0,1.8-0.1,2,0.1c3.4,4.2,5.3,9.6,5.2,15c1.1-0.9,2.6,0.3,3.4,1.4c5.2,6.7,10.1,13.7,14.7,21
											c-0.9-3.2-0.9-6.6-1.8-9.8C292,309.5,291,307.7,290.1,305.8z"/>
										<path class="st3" d="M321.6,318.8c1.3-3.5,2.3-7,2.4-10.7c0.1-3.3-0.7-6.8-2.4-9.7c-0.4-0.7-2.3-3.7-3.3-3.4
											c-1.8,0.4,0.6,3.6,1,4.4c1.6,3,3.2,6.1,3.1,9.5c-0.1,2.6-1.2,5-2,7.5c-0.6,1.7-1.1,3.5-1.1,5.3c-0.1,0.2-0.3,0.4-0.4,0.6
											c-1.2,1.6-2.9,2.9-4.9,3.2c0.7-2.3,1.5-4.6,2.2-6.9c0.3-0.8,0.4-1.9-0.1-2.5c0.2-0.3,0.2-0.6,0.2-1c0-0.6-0.4-1.2-0.7-1.8
											c-1-2.2-0.7-4.8-0.4-7.3c0.3-3,0.4-6.1-0.5-9s-2.9-5.6-5.8-6.5c0.2,0.3,0.5,0.5,0.7,0.8l-1-0.7c0.6,1.3,1.2,2.5,1.8,3.8
											c-0.2,0.3-0.4,0.6-0.7,1c1-0.5,2.3,0.2,2.7,1.3c0.5,1,0.3,2.2,0.2,3.3c-0.6,6.3-0.3,12.6,0.9,18.8
											c-0.1,1.4-0.4,2.9-1.1,4.1c-0.8,1.3-2.3,2.3-3.9,2.1c0.3-1.5-0.2-3.2-1.5-4.1c-1.6,2.2-0.6,5.5-0.4,8
											c0.4,3.7,1,7.4,1.8,11.1c0.2-3.2,0.9-6.3,2-9.3c0.8,3.1,1.7,6.1,2.5,9.2c0-0.9,0.1-1.7,0.5-2.5s1.3-1.3,2.1-1
											c0.7,0.2,1,0.9,1.3,1.6c2.2,5.2,2.7,11.2,1.6,16.7c1,0.6,2.4-0.1,3-1.2c0.6-1,0.6-2.3,0.5-3.5
											C321.9,339.4,321.7,329.1,321.6,318.8z"/>
										<path class="st3" d="M295.4,322.1c-0.5,0.9,1.5,4.3,1.9,5.1c1.7,4.2,3.4,8.3,5.1,12.5c-0.6-5.5-1.9-10.9-4-16
											C298,322.8,296.3,320.3,295.4,322.1z"/>
										<path class="st3" d="M298,300c-0.3,0.4-0.7,1-1.2,0.8c-0.5-0.1-0.5-0.8-0.5-1.3c0-2.9,0.1-5.8,0.1-8.7
											c-2.3,1.7-2,3.9-2.2,6.4c-0.1,1.4,0.3,8.4-0.7,9.2c2.3-2,4.3-4.4,5.8-7C298.9,299.1,298.3,299.6,298,300z"/>
									</g>
								</g>
							</g>
						</g>
						<g>
							<g>
								<g>
									<path class="st15" d="M303.9,290.5c1.4,5,2.1,10.3,2.1,15.5c0,0.9,0,1.8,0.3,2.6c0.3,0.8,0.9,1.6,1.8,1.8"/>
									<path class="st15" d="M314.9,295.6c2.3,4.8-0.1,15.6,0.1,16.4c0.2,0.8,0.6,1.5,1.3,1.9"/>
									<g>
										<path class="st15" d="M294.9,289.9c-0.3,1.5-0.5,3.3-0.8,4.9c-1.8-1.5-2.9-3.8-3.1-6.2"/>
										<path class="st15" d="M280.1,331.1c-0.6,0.2-1.1,0.5-1.7,0.7"/>
										<path class="st15" d="M280.5,332.5c-0.3,1.3-0.3,2.6,0,3.9"/>
										<path class="st15" d="M290.3,318c0.6,1.1,1.2,2.2,1.8,3.3"/>
										<path class="st15" d="M293.9,305.8c0.6-0.9,1.2-1.7,1.8-2.6"/>
										<path class="st15" d="M319.7,318c-0.2,0.7-0.4,1.4-0.6,2"/>
										<path class="st15" d="M315.2,312.4c0.5-1.7,1.1-3.5,1.6-5.2"/>
										<path class="st15" d="M320.7,303.2c1-0.6,2.3-0.1,2.8,0.9"/>
										<path class="st15" d="M309.6,294.4c1.3-0.4,2.7,0,3.7,0.9"/>
										<path class="st15" d="M275.1,299.5c1.2-1.3,3-2,4.8-1.8"/>
									</g>
								</g>
								<path class="st15" d="M268.2,284.9c1.1-0.8,2.5-1.1,3.9-0.9"/>
								<path class="st3" d="M269.6,319.5c-0.9,0.7-1.7,1.6-2.3,2.6L269.6,319.5z"/>
							</g>
							<path class="st15" d="M270.3,316c1.2-0.9,3.2,1.1,4.3,0.1c0.4-0.4,0.5-1.1,0.4-1.7c-0.1-0.6-0.3-1.2-0.2-1.8"/>
						</g>
					</g>
				</g>
				<path class="st15" d="M304.8,310.7c1.5,3,1.8,6.6,0.9,9.9"/>
				<path class="st15" d="M313.8,315.4c0.2,1.4,0,3-0.8,4.3"/>
			</g>
		</g>
		<g>
			<g>
				<g>
					<g>
						<g>
							<path class="st16" d="M301.7,389.9l-8.1-25.4c-7.6-7.8-21.5-14.9-22.7-25.7c-1.6-13.9-3.7-13.3-3.7-16.8c0-0.1,1-1.7,2.1-5.2
								c0.4-1.1,0.6-2.8,0.8-4.2c0.2-1.4,1.5-2.5,3-2.4c1,0.1,2,0.4,2.7,1.1c1.4,1.2,2.1,3,2.3,4.9c0.2,1.8-0.1,3.7-0.4,5.5
								c1.5,2.8,2.3,6.3,3,9.4c0.7-2.6,1.1-5.2,1.8-7.8c0.2-0.1,0.1-0.3,0.2-0.4c-1.3-2.4-0.3-2.4-3-7.7c-4.5-9-9.4-17.6-13.3-29.1
								c-0.3-0.9-0.4-2.4-0.1-3.3c0.9-3.4,4.4-2.9,6-1c0.4,0.5,0.8,1,1,1.6c1.9,4,5.7,10.2,8.3,13.7l9.2,12.2c0,0,2.8-2.6,3.1-3.7
								l0,0c0.4-1.1,0-9.8,0-9.8s-0.6,1.7-2,1.7c-1.1,0-3.2,0.8-4.8-0.9c-1.3-1.3-1.5-3.4-0.5-5l3.5-5.4c0,0,2.4-2.4,5.9-1.1
								c3.5,1.3,7,4.3,7,4.3s3.2-0.4,5.9,0.7c2.8,1.1,5.9,4.6,5.9,4.6s3.2,0,4.6,0.9c0.4,0.2,5.7,7.4,4.3,13.3
								c-0.8,3.5-1.1,8.6-1.5,10l-0.1,34.2l6.4,22.7"/>
						</g>
						<g>
							<g>
								<g>
									<path class="st16" d="M303.9,290.5c1.4,5,2.1,10.3,2.1,15.5c0,0.9,0,1.8,0.3,2.6c0.3,0.8,0.9,1.6,1.8,1.8"/>
									<path class="st16" d="M314.9,295.6c2.3,4.8-0.1,15.6,0.1,16.4c0.2,0.8,0.6,1.5,1.3,1.9"/>
									<g>
										<path class="st16" d="M294.9,289.9c-0.3,1.5-0.5,3.3-0.8,4.9c-1.8-1.5-2.9-3.8-3.1-6.2"/>
										<path class="st16" d="M280.1,331.1c-0.6,0.2-1.1,0.5-1.7,0.7"/>
										<path class="st16" d="M280.5,332.5c-0.3,1.3-0.3,2.6,0,3.9"/>
										<path class="st16" d="M290.3,318c0.6,1.1,1.2,2.2,1.8,3.3"/>
										<path class="st16" d="M293.9,305.8c0.6-0.9,1.2-1.7,1.8-2.6"/>
										<path class="st16" d="M319.7,318c-0.2,0.7-0.4,1.4-0.6,2"/>
										<path class="st16" d="M315.2,312.4c0.5-1.7,1.1-3.5,1.6-5.2"/>
										<path class="st16" d="M320.7,303.2c1-0.6,2.3-0.1,2.8,0.9"/>
										<path class="st16" d="M309.6,294.4c1.3-0.4,2.7,0,3.7,0.9"/>
										<path class="st16" d="M275.1,299.5c1.2-1.3,3-2,4.8-1.8"/>
									</g>
								</g>
								<path class="st16" d="M268.2,284.9c1.1-0.8,2.5-1.1,3.9-0.9"/>
								<path class="st16" d="M269.6,319.5c-0.9,0.7-1.7,1.6-2.3,2.6"/>
							</g>
							<path class="st16" d="M270.3,316c1.2-0.9,3.2,1.1,4.3,0.1c0.4-0.4,0.5-1.1,0.4-1.7c-0.1-0.6-0.3-1.2-0.2-1.8"/>
						</g>
					</g>
				</g>
				<path class="st16" d="M304.8,310.7c1.5,3,1.8,6.6,0.9,9.9"/>
				<path class="st16" d="M313.8,315.4c0.2,1.4,0,3-0.8,4.3"/>
			</g>
		</g>
		<path class="st5" d="M239,327c0.1,0.5,0,1.1-0.1,1.6c-0.5,2.3-2,9.1-2.5,12.8c-0.6,4.5-8,18.6-8,18.6s-6.7,8.4-10.2,12.7
			c-1.7,2.1-4.4,10.8-6.6,19.1c-2.9-0.9-5.7-1.8-8.5-2.8c-2.3-0.8-4.7-1.7-7-2.6c-3.2-1.3-7.4-3.3-12.1-5.9c1.3-4.7,2.1-8.2,2.1-8.5
			c0-0.5,2.8-5.9,2.8-5.9l-2.4-32l-1.4-4.9c-0.7-2.5-1.2-5.1-1.4-7.7c-0.3-4,0-8,1-11.9l4.2-6.2l2-0.1l6.1-8.5c0,0,3.3-1,4.1,1.5
			c0.8,2.5-2.7,7.1-2.7,7.1l-1.2,7.6l2.9,7.1l1.5,0.6c0,0,0.5-12.6,0.2-15.1l3.2-11.5c0,0,1.9-3.8,2.5-5.8c0.6-1.9,4-3.8,6-0.5
			c0,0,1.1,1.7,0.3,4.1c-0.8,2.4-1.5,4.2-1.5,4.2s-0.7,9.7-1,10c-0.2,0.3,1.4,14.5,1.4,14.5l1.3,0.6l0.4-13.6l2.6-12.7
			c0,0-0.2-6.1,4.1-5.4c0,0,2-0.2,3.2,2c1.2,2.2,0.1,16.9,0.1,16.9l1.1,15.2l1.7,11.7l2-8c0,0,0.1-11.5,7.4-12.5
			c0,0,2.2-0.4,2.6,1.1c0.4,1.5-1.1,4.6-0.9,7.5C238.6,323.5,238.9,325.8,239,327z"/>
		<g>
			<g>
				<g>
					<path id="XMLID_1_" class="st3" d="M236.8,312.8c-0.3-1.5-2.5-1.3-2.5-1.3c-7.3,0.4-8.3,11.9-8.3,11.9l-2.6,7.8l-0.8-11.8
						l0.1-15.2c0,0,2.2-14.6,1.2-16.8c-1-2.3-3-2.2-3-2.2c-4.3-1.1-4.5,5.1-4.5,5.1l-3.6,12.5l-1.5,13.5l-1.2-0.7
						c0,0-0.6-14.3-0.3-14.6c0.2-0.2,1.7-9.9,1.7-9.9s0.8-1.8,1.8-4.1c1-2.3,0-4.1,0-4.1c-1.7-3.5-5.3-1.9-6,0
						c-0.7,1.9-2.9,5.6-2.9,5.6l-4.1,11.2c0.2,2.5-1.3,15-1.3,15l-1.5-0.7l-2.4-7.3l1.8-7.5c0,0,3.9-4.3,3.3-6.9
						c-0.7-2.5-4-1.8-4-1.8l-6.7,8h-2l-4.7,5.9c-1.3,3.8-1.9,7.8-1.9,11.7c0,2.6,0.3,5.2,0.8,7.8l1.1,5v32.1c0,0-3.2,5.1-3.2,5.6
						c0,0.2-1.3,4.3-3.2,9.3c8,4.7,14.9,8.4,19.8,10.3c2.3,0.9,4.6,1.8,7,2.6c2.9-8.2,6.4-17.1,8.3-19.1
						c3.8-4.1,11.1-11.9,11.1-11.9s8.4-13.4,9.3-17.9c0.8-3.7,2.8-10.3,3.4-12.6c0.2-0.5,0.2-1.1,0.2-1.6c-0.1-1.2-0.2-3.5-0.2-5.6
						C235.4,317.3,237.2,314.3,236.8,312.8z"/>
				</g>
				<g>
					<defs>
						<path id="SVGID_5_" d="M236.8,312.8c-0.3-1.5-2.5-1.3-2.5-1.3c-7.3,0.4-8.3,11.9-8.3,11.9l-2.6,7.8l-0.8-11.8l0.1-15.2
							c0,0,2.2-14.6,1.2-16.8c-1-2.3-3-2.2-3-2.2c-4.3-1.1-4.5,5.1-4.5,5.1l-3.6,12.5l-1.5,13.5l-1.2-0.7c0,0-0.6-14.3-0.3-14.6
							c0.2-0.2,1.7-9.9,1.7-9.9s0.8-1.8,1.8-4.1c1-2.3,0-4.1,0-4.1c-1.7-3.5-5.3-1.9-6,0c-0.7,1.9-2.9,5.6-2.9,5.6l-4.1,11.2
							c0.2,2.5-1.3,15-1.3,15l-1.5-0.7l-2.4-7.3l1.8-7.5c0,0,3.9-4.3,3.3-6.9c-0.7-2.5-4-1.8-4-1.8l-6.7,8h-2l-4.7,5.9
							c-1.3,3.8-1.9,7.8-1.9,11.7c0,2.6,0.3,5.2,0.8,7.8l1.1,5v32.1c0,0-3.2,5.1-3.2,5.6c0,0.2-1.3,4.3-3.2,9.3
							c8,4.7,14.9,8.4,19.8,10.3c2.3,0.9,4.6,1.8,7,2.6c2.9-8.2,6.4-17.1,8.3-19.1c3.8-4.1,11.1-11.9,11.1-11.9s8.4-13.4,9.3-17.9
							c0.8-3.7,2.8-10.3,3.4-12.6c0.2-0.5,0.2-1.1,0.2-1.6c-0.1-1.2-0.2-3.5-0.2-5.6C235.4,317.3,237.2,314.3,236.8,312.8z"/>
					</defs>
					<clipPath id="SVGID_6_">
						<use xlink:href="#SVGID_5_"  style="overflow:visible;"/>
					</clipPath>
					<path class="st17" d="M186.7,309.6c1.2-1.6,3.8-2.2,5.3-0.8c0.8,0.8,1.1,2,1.3,3.1c0.2,1.1,0.4,2.3,1.2,3.2
						c0.7,0.9,2.2,1.2,3,0.4c0.1,1.7,0.2,3.4,0.3,5.1c1.8-3.1,2.7-6.8,2.7-10.4c0-1.8-0.3-3.5,0.1-5.3c0.4-1.7,1.7-3.4,3.5-3.5
						c1.9-0.1,3.5,1.8,3.9,3.7c0.4,1.9-0.1,3.9-0.2,5.8c-0.2,3,0.4,6,1.7,8.7c0.4-0.8,0.8-1.7,1.2-2.5c0.4,1.7,0.7,3.3,1.1,5
						c0.3-3.7,0.6-7.3,1-11c0.1-1,0.2-2.1,0.7-3c0.5-0.9,1.4-1.7,2.5-1.6c1.4,0.1,2.2,1.6,2.7,2.9c3.5,9.9,2,20.7,0.6,31
						c1,0.2,1.8-0.8,2-1.8c0.2-1,0.2-2,0.5-2.9c0.4-0.9,1.5-1.7,2.3-1.1c1.2,0.8,0.4,3.1,1.6,3.8c0.4-3.1,1.6-6,3.5-8.5
						c0.9-1.1,2.1-2.2,3.5-1.9c1,0.3,1.7,1.3,1.8,2.3c0.1,1,1.6-3.2,1.4-2.2c0.6-6-0.6-6.6,0-12.6c0.1-1.1,1.8-2.9,1.1-3.7
						c-0.7-0.8-2.8-1.8-3.7-1.4c-0.9,0.4-4,1.9-4.6,2.8c-3.8,5.2-3.5,12.8-4.7,19.2c-1-9.7-2-19.6-0.2-29.2c1-5.3,2.8-10.8,1.1-15.9
						c-0.8-2.3-2.9-4.7-5.3-4.2c-1.9,0.4-3.1,2.3-3.9,4.1c-2.7,6.1-3.8,12.7-5,19.3c1.5-6.6,2.9-13.2,4.4-19.8
						c0.4-1.7,0.8-3.5,0.4-5.2c-0.3-1.7-1.5-3.4-3.2-3.8c-1.7-0.4-3.4,0.6-4.7,1.8c-4.6,4.2-6.3,10.6-7.8,16.7
						c0.5-1.6,1.1-3.2,0.9-4.9c-0.2-1.7-1.2-3.3-2.8-3.7c-2.1-0.5-4,1.4-4.9,3.4c-0.9,1.9-1.4,4.2-2.9,5.8c-1.1-1.2-3.1-1.1-4.4-0.2
						c-1.3,0.9-2.2,2.4-2.8,3.9c-2.4,5.4-3.5,11.5-3,17.4c1.1-2.4,3.8-3.9,6.3-3.6c-0.2-1.3-0.3-2.6-0.5-4"/>
				</g>
				<g>
					<defs>
						<path id="SVGID_7_" d="M236.8,312.8c-0.3-1.5-2.5-1.3-2.5-1.3c-7.3,0.4-8.3,11.9-8.3,11.9l-2.6,7.8l-0.8-11.8l0.1-15.2
							c0,0,2.2-14.6,1.2-16.8c-1-2.3-3-2.2-3-2.2c-4.3-1.1-4.5,5.1-4.5,5.1l-3.6,12.5l-1.5,13.5l-1.2-0.7c0,0-0.6-14.3-0.3-14.6
							c0.2-0.2,1.7-9.9,1.7-9.9s0.8-1.8,1.8-4.1c1-2.3,0-4.1,0-4.1c-1.7-3.5-5.3-1.9-6,0c-0.7,1.9-2.9,5.6-2.9,5.6l-4.1,11.2
							c0.2,2.5-1.3,15-1.3,15l-1.5-0.7l-2.4-7.3l1.8-7.5c0,0,3.9-4.3,3.3-6.9c-0.7-2.5-4-1.8-4-1.8l-6.7,8h-2l-4.7,5.9
							c-1.3,3.8-1.9,7.8-1.9,11.7c0,2.6,0.3,5.2,0.8,7.8l1.1,5v32.1c0,0-3.2,5.1-3.2,5.6c0,0.2-1.3,4.3-3.2,9.3
							c8,4.7,14.9,8.4,19.8,10.3c2.3,0.9,4.6,1.8,7,2.6c2.9-8.2,6.4-17.1,8.3-19.1c3.8-4.1,11.1-11.9,11.1-11.9s8.4-13.4,9.3-17.9
							c0.8-3.7,2.8-10.3,3.4-12.6c0.2-0.5,0.2-1.1,0.2-1.6c-0.1-1.2-0.2-3.5-0.2-5.6C235.4,317.3,237.2,314.3,236.8,312.8z"/>
					</defs>
					<clipPath id="SVGID_8_">
						<use xlink:href="#SVGID_7_"  style="overflow:visible;"/>
					</clipPath>
					<g class="st18">
						<g>
							<path class="st1" d="M191.8,322.2c-0.1,1-0.1,1.9-0.2,2.9c0.3-0.8,1.5-1.1,2.1-0.5c-0.1-0.6,0.2-1.2,0.5-1.8s0.3-1.4-0.3-1.7
								c-0.7-0.3-1.4,0.4-1.7,1.1c0-0.2-0.1-0.5-0.1-0.7L191.8,322.2z"/>
						</g>
						<g>
							<path class="st1" d="M202.8,320.4c-0.8,0.9-1.3,2-1.6,3.2c0.3-0.3,0.7-0.7,1.1-0.8c0.4-0.2,1-0.1,1.3,0.3
								c0.2,0.2,0.2,0.6,0.5,0.7c0.3,0.1,0.6,0,0.8-0.3c0.2-0.2,0.2-0.6,0.2-0.9c0-0.6,0.1-1.1-0.1-1.7s-0.6-1-1.1-1.2
								c-0.5-0.1-1.2,0.3-1.2,0.9L202.8,320.4z"/>
						</g>
						<g>
							<path class="st1" d="M213.6,323.1c-0.9,1.1-1.4,2.5-1.6,3.9c0.6-0.1,1-0.5,1.5-0.8c0.5-0.4,1-0.7,1.5-0.8
								c0.6,0,1.2,0.4,1.2,0.9c-0.1-0.6,0-1.3,0.1-2c0.1-0.7,0.1-1.3-0.1-1.9s-0.8-1.1-1.5-1.1c-0.7,0-1.2,0.8-0.9,1.4L213.6,323.1z
								"/>
						</g>
						<g>
							<path class="st1" d="M184,327c-0.6,1.1-0.9,2.4-0.9,3.6c0-0.6,0.6-1.1,1.1-1.1c0.6-0.1,1.2,0.1,1.7,0.4
								c0.1-0.6,0.2-1.2,0.1-1.8c-0.1-0.6-0.5-1.1-1.1-1.2c-0.6-0.1-1.2,0.5-1.1,1c-0.1-0.1-0.1-0.3-0.2-0.4L184,327z"/>
						</g>
					</g>
				</g>
				<g>
					<defs>
						<path id="SVGID_9_" d="M236.8,312.8c-0.3-1.5-2.5-1.3-2.5-1.3c-7.3,0.4-8.3,11.9-8.3,11.9l-2.6,7.8l-0.8-11.8l0.1-15.2
							c0,0,2.2-14.6,1.2-16.8c-1-2.3-3-2.2-3-2.2c-4.3-1.1-4.5,5.1-4.5,5.1l-3.6,12.5l-1.5,13.5l-1.2-0.7c0,0-0.6-14.3-0.3-14.6
							c0.2-0.2,1.7-9.9,1.7-9.9s0.8-1.8,1.8-4.1c1-2.3,0-4.1,0-4.1c-1.7-3.5-5.3-1.9-6,0c-0.7,1.9-2.9,5.6-2.9,5.6l-4.1,11.2
							c0.2,2.5-1.3,15-1.3,15l-1.5-0.7l-2.4-7.3l1.8-7.5c0,0,3.9-4.3,3.3-6.9c-0.7-2.5-4-1.8-4-1.8l-6.7,8h-2l-4.7,5.9
							c-1.3,3.8-1.9,7.8-1.9,11.7c0,2.6,0.3,5.2,0.8,7.8l1.1,5v32.1c0,0-3.2,5.1-3.2,5.6c0,0.2-1.3,4.3-3.2,9.3
							c8,4.7,14.9,8.4,19.8,10.3c2.3,0.9,4.6,1.8,7,2.6c2.9-8.2,6.4-17.1,8.3-19.1c3.8-4.1,11.1-11.9,11.1-11.9s8.4-13.4,9.3-17.9
							c0.8-3.7,2.8-10.3,3.4-12.6c0.2-0.5,0.2-1.1,0.2-1.6c-0.1-1.2-0.2-3.5-0.2-5.6C235.4,317.3,237.2,314.3,236.8,312.8z"/>
					</defs>
					<clipPath id="SVGID_10_">
						<use xlink:href="#SVGID_9_"  style="overflow:visible;"/>
					</clipPath>
					<path id="XMLID_3_" class="st19" d="M186.7,309.6c1.2-1.6,3.8-2.2,5.3-0.8c0.8,0.8,1.1,2,1.3,3.1c0.2,1.1,0.4,2.3,1.2,3.2
						c0.7,0.9,2.2,1.2,3,0.4c0.1,1.7,0.2,3.4,0.3,5.1c1.8-3.1,2.7-6.8,2.7-10.4c0-1.8-0.3-3.5,0.1-5.3c0.4-1.7,1.7-3.4,3.5-3.5
						c1.9-0.1,3.5,1.8,3.9,3.7c0.4,1.9-0.1,3.9-0.2,5.8c-0.2,3,0.4,6,1.7,8.7c0.4-0.8,0.8-1.7,1.2-2.5c0.4,1.7,0.7,3.3,1.1,5
						c0.3-3.7,0.6-7.3,1-11c0.1-1,0.2-2.1,0.7-3c0.5-0.9,1.4-1.7,2.5-1.6c1.4,0.1,2.2,1.6,2.7,2.9c3.5,9.9,2,20.7,0.6,31
						c1,0.2,1.8-0.8,2-1.8c0.2-1,0.2-2,0.5-2.9c0.4-0.9,1.5-1.7,2.3-1.1c1.2,0.8,0.4,3.1,1.6,3.8c0.4-3.1,1.6-6,3.5-8.5
						c0.9-1.1,2.1-2.2,3.5-1.9c1,0.3,1.7,1.3,1.8,2.3c0.1,1,1.6-3.2,1.4-2.2c0.6-6-0.6-6.6,0-12.6c0.1-1.1,1.8-2.9,1.1-3.7
						c-0.7-0.8-2.8-1.8-3.7-1.4c-0.9,0.4-4,1.9-4.6,2.8c-3.8,5.2-3.5,12.8-4.7,19.2c-1-9.7-2-19.6-0.2-29.2c1-5.3,2.8-10.8,1.1-15.9
						c-0.8-2.3-2.9-4.7-5.3-4.2c-1.9,0.4-3.1,2.3-3.9,4.1c-2.7,6.1-3.8,12.7-5,19.3c1.5-6.6,2.9-13.2,4.4-19.8
						c0.4-1.7,0.8-3.5,0.4-5.2c-0.3-1.7-1.5-3.4-3.2-3.8c-1.7-0.4-3.4,0.6-4.7,1.8c-4.6,4.2-6.3,10.6-7.8,16.7
						c0.5-1.6,1.1-3.2,0.9-4.9c-0.2-1.7-1.2-3.3-2.8-3.7c-2.1-0.5-4,1.4-4.9,3.4c-0.9,1.9-1.4,4.2-2.9,5.8c-1.1-1.2-3.1-1.1-4.4-0.2
						c-1.3,0.9-2.2,2.4-2.8,3.9c-2.4,5.4-3.5,11.5-3,17.4c1.1-2.4,3.8-3.9,6.3-3.6c-0.2-1.3-0.3-2.6-0.5-4"/>
				</g>
				<g>
					<defs>
						<path id="SVGID_11_" d="M236.8,312.8c-0.3-1.5-2.5-1.3-2.5-1.3c-7.3,0.4-8.3,11.9-8.3,11.9l-2.6,7.8l-0.8-11.8l0.1-15.2
							c0,0,2.2-14.6,1.2-16.8c-1-2.3-3-2.2-3-2.2c-4.3-1.1-4.5,5.1-4.5,5.1l-3.6,12.5l-1.5,13.5l-1.2-0.7c0,0-0.6-14.3-0.3-14.6
							c0.2-0.2,1.7-9.9,1.7-9.9s0.8-1.8,1.8-4.1c1-2.3,0-4.1,0-4.1c-1.7-3.5-5.3-1.9-6,0c-0.7,1.9-2.9,5.6-2.9,5.6l-4.1,11.2
							c0.2,2.5-1.3,15-1.3,15l-1.5-0.7l-2.4-7.3l1.8-7.5c0,0,3.9-4.3,3.3-6.9c-0.7-2.5-4-1.8-4-1.8l-6.7,8h-2l-4.7,5.9
							c-1.3,3.8-1.9,7.8-1.9,11.7c0,2.6,0.3,5.2,0.8,7.8l1.1,5v32.1c0,0-3.2,5.1-3.2,5.6c0,0.2-1.3,4.3-3.2,9.3
							c8,4.7,14.9,8.4,19.8,10.3c2.3,0.9,4.6,1.8,7,2.6c2.9-8.2,6.4-17.1,8.3-19.1c3.8-4.1,11.1-11.9,11.1-11.9s8.4-13.4,9.3-17.9
							c0.8-3.7,2.8-10.3,3.4-12.6c0.2-0.5,0.2-1.1,0.2-1.6c-0.1-1.2-0.2-3.5-0.2-5.6C235.4,317.3,237.2,314.3,236.8,312.8z"/>
					</defs>
					<clipPath id="SVGID_12_">
						<use xlink:href="#SVGID_11_"  style="overflow:visible;"/>
					</clipPath>
					<g class="st20">
						<g>
							<path class="st3" d="M191.8,322.2c-0.1,1-0.1,1.9-0.2,2.9c0.3-0.8,1.5-1.1,2.1-0.5c-0.1-0.6,0.2-1.2,0.5-1.8s0.3-1.4-0.3-1.7
								c-0.7-0.3-1.4,0.4-1.7,1.1c0-0.2-0.1-0.5-0.1-0.7L191.8,322.2z"/>
						</g>
						<g>
							<path class="st3" d="M202.8,320.4c-0.8,0.9-1.3,2-1.6,3.2c0.3-0.3,0.7-0.7,1.1-0.8c0.4-0.2,1-0.1,1.3,0.3
								c0.2,0.2,0.2,0.6,0.5,0.7c0.3,0.1,0.6,0,0.8-0.3c0.2-0.2,0.2-0.6,0.2-0.9c0-0.6,0.1-1.1-0.1-1.7s-0.6-1-1.1-1.2
								c-0.5-0.1-1.2,0.3-1.2,0.9L202.8,320.4z"/>
						</g>
						<g>
							<path class="st3" d="M213.6,323.1c-0.9,1.1-1.4,2.5-1.6,3.9c0.6-0.1,1-0.5,1.5-0.8c0.5-0.4,1-0.7,1.5-0.8
								c0.6,0,1.2,0.4,1.2,0.9c-0.1-0.6,0-1.3,0.1-2c0.1-0.7,0.1-1.3-0.1-1.9s-0.8-1.1-1.5-1.1c-0.7,0-1.2,0.8-0.9,1.4L213.6,323.1z
								"/>
						</g>
						<g>
							<path class="st3" d="M184,327c-0.6,1.1-0.9,2.4-0.9,3.6c0-0.6,0.6-1.1,1.1-1.1c0.6-0.1,1.2,0.1,1.7,0.4
								c0.1-0.6,0.2-1.2,0.1-1.8c-0.1-0.6-0.5-1.1-1.1-1.2c-0.6-0.1-1.2,0.5-1.1,1c-0.1-0.1-0.1-0.3-0.2-0.4L184,327z"/>
						</g>
					</g>
				</g>
			</g>
			<g>
				<path class="st16" d="M176.5,376.1c1.8-5.1,3.2-9.1,3.2-9.3c0-0.5,3.2-5.6,3.2-5.6V329l-1.1-5c-0.6-2.6-0.8-5.2-0.8-7.8
					c0-4,0.6-7.9,1.9-11.7l4.7-5.9h2l6.7-8c0,0,3.3-0.7,4,1.8c0.7,2.5-3.3,6.9-3.3,6.9l-1.8,7.5l2.4,7.3l1.5,0.7
					c0,0,1.5-12.5,1.3-15l4.1-11.2c0,0,2.2-3.7,2.9-5.6c0.7-1.9,4.3-3.5,6,0c0,0,1,1.8,0,4.1c-1,2.3-1.8,4.1-1.8,4.1
					s-1.5,9.6-1.7,9.9c-0.2,0.2,0.3,14.6,0.3,14.6l1.2,0.7l1.5-13.5l3.6-12.5c0,0,0.2-6.1,4.5-5.1c0,0,2-0.1,3,2.2
					c1,2.3-1.2,16.8-1.2,16.8l-0.1,15.2l0.8,11.8l2.6-7.8c0,0,1-11.5,8.3-11.9c0,0,2.2-0.2,2.5,1.3c0.3,1.5-1.4,4.5-1.4,7.4
					c0,2.1,0.1,4.4,0.2,5.6c0,0.5,0,1.1-0.2,1.6c-0.7,2.3-2.6,8.9-3.4,12.6c-1,4.5-9.3,17.9-9.3,17.9s-7.4,7.8-11.1,11.9
					c-1.9,2.1-5.3,10.9-8.3,19.1"/>
			</g>
			<path class="st6" d="M198.8,316c0.4,1.5,0,3.3-1.1,4.4"/>
			<path class="st6" d="M186.3,326.8c1.1-1.6,2.1-3.9,1.8-5.8c-0.6-3.8-2.3-8.2-1.5-11.9c0.5-2.4,1-4.8,1.5-7.2"/>
			<path class="st16" d="M217.1,290.9c1.3-0.3,2.6-0.3,3.9,0c0-0.4,0-0.7,0-1.1"/>
			<path class="st16" d="M207,286.1c0.7,0.5,1.8,0.6,2.6,0.2c0.8-0.4,1.3-1.3,1.3-2.2"/>
			<path class="st16" d="M234.9,313c-2.1,0.5-3.7,2.7-3.5,4.9c0.6,0.2,1.3,0.4,1.9,0.6"/>
			<path class="st6" d="M210,313.9c0.1,1.3-0.1,4.4,0,5.7"/>
			<path class="st6" d="M211.5,315.7c-0.2,2.1-0.3,4.3-0.5,6.4c0-0.3,0-0.5,0-0.8"/>
			<path class="st6" d="M223.3,333.6c0.6,2.3,0.3,4.8-0.7,7"/>
			<path class="st16" d="M203.7,322.5c-1.7,1.8-1.4,6.3-0.2,8.7"/>
			<path class="st16" d="M216.1,325.5c0,2-0.7,4-2.1,5.7"/>
			<path class="st16" d="M191.4,323.4c-0.3,1.9,0.1,3.8,1.2,5.4"/>
			<path class="st16" d="M184.2,329.1c-0.1,1.5,0.3,2.9,1.2,4.1"/>
			<path class="st16" d="M194,293.5c0.9-0.4,2-0.2,2.7,0.4c0.3-0.4,0.6-0.8,1-1.3"/>
			<path class="st16" d="M202,299.2c1.3-0.8,3.1-0.5,4.1,0.7"/>
			<path class="st16" d="M214.4,303c1.4-0.6,3-0.6,4.4,0.1"/>
			<path class="st16" d="M186.8,309.5c0.8-1.4,2.5-2.2,4.1-2"/>
			<path class="st16" d="M181.6,316.9c0-1,0.8-1.9,1.8-2.1"/>
		</g>
	</g>
</g>
<g id="Coffee">
	<g>
		<circle class="st21" cx="380.8" cy="229.3" r="32"/>
		<g>
			<g>
				<g>
					<path class="st5" d="M417.1,230.1c-6.8,11.2-9.3,9.7-32.6,20.9c-11.8,5.7-23.3-12.6-15.5-31.3c0.4-0.9,3.7-5.5,3.7-5.5
						c1.4-6.2,6.5-11.4,12.7-12.8c6.2-1.5,13.1,0.9,17.1,5.8c4.4-3.9,10.7-5.3,16.4-3.9c0.3,0.8,0.5,1.6,0.8,2.3
						c0.1,0.3,0.2,0.6,0.3,0.9c0.3,0.9,0.6,1.8,0.8,2.7c0.5,1.7,1,3.5,1.4,5.2c-2.6-0.7-5.2-0.7-7.6,0.5c-1.7,0.8-3.1,2.2-4.9,2.9
						c-1.8,0.7-4.2,0.3-4.9-1.5c0.9,3.6,4.6,2.5,8.2,3.2C418.6,220.6,420,225.4,417.1,230.1z"/>
				</g>
				<g>
					<path class="st22" d="M406.6,224.6c0,0,5.7-0.8,8.5-0.4c1.7,0.3,2.8,1.3,3.3,1.9c0.2,0.3,0.4,0.6,0.4,1l0.3,4.5
						c0,0.5-0.1,1-0.5,1.4c-1.1,1.2-4.5,3.3-14.5,4.1C390,238.2,406.6,224.6,406.6,224.6z"/>
					<g>
						<path class="st22" d="M402.4,213c1.6,2,4.7,6.6,4.7,13.6c0,5.3-6.2,23.6-22,25.8c-16.8,2.4-30.2-12-27.4-29.3
							C359.7,211.3,388.9,196.3,402.4,213z"/>
						<ellipse class="st3" cx="381.9" cy="225.5" rx="24.3" ry="23"/>
						<ellipse class="st10" cx="381.9" cy="226.7" rx="20" ry="18.9"/>
						<path class="st21" d="M406.2,225.5c0-12.7-10.9-23-24.3-23s-24.3,10.3-24.3,23"/>
						<path class="st21" d="M399.8,241c4-4.1,6.4-9.6,6.4-15.6"/>
						<path class="st21" d="M364.9,241.9c4.4,4.1,10.4,6.6,17,6.6c4.1,0,7.9-1,11.3-2.6"/>
						<path class="st21" d="M361.4,237.8c0.3,0.5,0.7,0.9,1,1.4"/>
						<path class="st21" d="M357.6,225.5c0,3.5,0.8,6.8,2.3,9.8"/>
					</g>
					<path class="st22" d="M417.6,231.8c0,0-4.3-3-11.4-0.3"/>
					<path class="st22" d="M413.9,233.9c-1.7,0.5-4.4,1.1-9,1.4"/>
					<path class="st22" d="M416.1,232.9c0,0-0.3,0.2-1.1,0.6"/>
				</g>
			</g>
			<g>
				<g>
					<path class="st3" d="M420,206.4c-0.1-0.3-0.2-0.6-0.3-0.9c-1.5-4.6-3.4-9.6-5.7-14.9c-0.4-1-0.9-2-1.3-3c-0.2,0-0.3,0-0.5,0
						c-2.2,0.2-4.6,0.5-6.4,1.8c-1.8,1.3-2.9,3.9-1.7,5.8c1.2,1.9,4.2,2.9,3.7,5.1c-5,2.8-11,2.5-16.5,3.9c-3.3,0.8-6.5,2.3-9.2,4.3
						c0,0,0,0,0,0c-0.9,0.7-1.7,1.4-2.5,2.1c-0.3,0.3-0.7,0.7-1,1.1c0,0,0,0,0,0c-0.5,0.6-0.8,1.2-0.9,2c-0.2,2.1,1.7,3.5,3.7,4.4
						c0.4,0.2,0.3,0.7,0,0.8c-1.3,0.5-2.6,1.1-3.6,2.1c0,0,0,0,0,0c-0.6,0.6-0.1,1.6,0.7,1.5c0.1,0,0.2,0,0.3,0
						c0.9-0.1,1.6,0,2.3,0.3c1.2,0.4,2,1.2,2.1,2.2c0.1,1.6-1.7,3-4,3.2c-0.6,0.1-0.1,0.7,0.7,0.9c1.6,0.3,3.3,0,4.9-0.4
						c1.9-0.5,4-1.1,5.1-2.8c0.5-0.7,0.6-1.6,0.5-2.5c-0.2-1.1-0.9-2.1-2.1-2.3c3.6-0.4,7.1-1.1,10.6-2.1h0l1.1-0.3
						c1-0.3,2.1-0.7,3-1.3c0.5-0.4,1-0.8,1.3-1.4c0.8-1.6-0.3-4-2-3.7c5-2,10.3-3.1,15.3-4.9C418.4,207.1,419.2,206.8,420,206.4z"/>
				</g>
			</g>
		</g>
	</g>
</g>
<g id="Monitor">
	<g>
		<path class="st5" d="M381.8,139.6c-4.7,4.2-10,7.7-15.4,10.9c-28.2,16.7-60,26.6-92.3,31.5c-32.3,4.9-65.3,4.7-97.9,2
			c-6.4-0.5-12.9-1.2-18.8-3.8c-5-2.2-9.5-6-11.6-11c7.1-8,13.6-16.2,20.9-23.9c1.7-1.8,3.5-3.6,5.4-5.4c1.5-1.5,3.1-2.9,4.7-4.4
			c1.9-1.6,3.8-3.2,5.8-4.8c2.7-2.1,5.6-4.2,8.7-6.1c0.8-0.5,1.5-1,2.3-1.4c77.1-47.9,133.8-32.3,171.7,0c2.9,2.4,5.6,4.9,8.2,7.6
			c1.6,1.6,3.2,3.2,4.7,4.8c0.2,0.2,0.3,0.3,0.5,0.5C379.7,137.3,380.8,138.4,381.8,139.6z"/>
		<path class="st22" d="M384.8,131.9l-259.4,1.2l3.9-5.9c1.9-2.8,5.1-4.5,8.5-4.5h234.7c3.1,0,6,1.4,7.9,3.8L384.8,131.9z"/>
		<g>
			<g>
				<path class="st23" d="M259.6,237.8h-14.2c-14.6,0-26.4-11.8-26.4-26.4v-14.2c0-14.6,11.8-26.4,26.4-26.4h14.2
					c14.6,0,26.4,11.8,26.4,26.4v14.2C286,226,274.2,237.8,259.6,237.8z"/>
				<path class="st24" d="M231.2,209.9v9.5c0,3,2.4,5.4,5.4,5.4h32.7c3,0,5.4-2.4,5.4-5.4c0-4.3,0.3-9.6,0.3-9.6H231.2L231.2,209.9z
					"/>
				<g>
					<g>
						<path class="st25" d="M350.8,213.1H159.7c-2,0-3.8-1.2-4.6-3.1l-29.5-75.7c-0.8-2,0.7-4.1,2.8-4.1H382c2.1,0,3.6,2.1,2.8,4.1
							L355.4,210C354.6,211.9,352.8,213.1,350.8,213.1z"/>
						<polygon class="st10" points="352.2,206.5 157.8,206.5 131.1,135 378.9,135 						"/>
					</g>
				</g>
			</g>
			<rect x="231.4" y="213" class="st10" width="43.3" height="3"/>
			<g>
				<g>
					<path class="st1" d="M323.8,203.4H186.5c-0.8,0-1.5-0.3-1.6-0.8l-19.5-62c-0.2-0.7,0.4-1.3,1.4-1.3h176.8c1,0,1.6,0.6,1.4,1.3
						l-19.5,62C325.3,203.1,324.6,203.4,323.8,203.4z"/>
					<polygon class="st10" points="323.3,202 187,202 170.4,147.5 339.9,147.5 					"/>
					<g>
						<path class="st3" d="M206.6,161.1h-25.8c-0.6,0-1.1,0.3-0.9,0.8c0.1,0.4,0.7,0.8,1.4,0.8h25.7c0.6,0,1.1-0.3,1-0.8
							C207.8,161.4,207.2,161.1,206.6,161.1z"/>
						<path class="st3" d="M207.5,165.8h-21.9c-0.6,0-1,0.3-0.9,0.7c0.1,0.4,0.7,0.7,1.3,0.7h21.8c0.6,0,1.1-0.3,1-0.7
							C208.7,166.1,208.1,165.8,207.5,165.8z"/>
						<path class="st12" d="M208.3,170.3h-24.9c-0.6,0-1,0.3-0.9,0.7c0.1,0.4,0.7,0.7,1.3,0.7h24.8c0.6,0,1.1-0.3,1-0.7
							C209.5,170.6,208.9,170.3,208.3,170.3z"/>
						<path class="st3" d="M209.1,174.7h-14.6c-0.6,0-1,0.3-0.9,0.7c0.1,0.4,0.7,0.7,1.3,0.7h14.5c0.6,0,1-0.3,1-0.7
							C210.3,175,209.7,174.7,209.1,174.7z"/>
						<path class="st3" d="M209.9,178.9h-24.1c-0.6,0-1,0.3-0.9,0.7c0.1,0.4,0.7,0.7,1.3,0.7h23.9c0.6,0,1-0.3,1-0.7
							C211,179.2,210.5,178.9,209.9,178.9z"/>
						<path class="st3" d="M210.6,183h-19.4c-0.6,0-1,0.3-0.9,0.6c0.1,0.4,0.6,0.6,1.2,0.6h19.3c0.6,0,1-0.3,0.9-0.6
							C211.8,183.3,211.2,183,210.6,183z"/>
						<path class="st3" d="M211.4,187h-19.1c-0.6,0-1,0.3-0.9,0.6c0.1,0.3,0.6,0.6,1.2,0.6h19c0.6,0,1-0.3,0.9-0.6
							C212.5,187.3,211.9,187,211.4,187z"/>
						<path class="st3" d="M212.1,190.9h-20.8c-0.6,0-1,0.3-0.9,0.6s0.6,0.6,1.2,0.6h20.7c0.6,0,1-0.3,0.9-0.6
							C213.1,191.1,212.6,190.9,212.1,190.9z"/>
						<path class="st12" d="M212.8,194.6h-13.5c-0.6,0-0.9,0.3-0.9,0.6c0.1,0.3,0.6,0.6,1.1,0.6H213c0.6,0,1-0.3,0.9-0.6
							C213.8,194.8,213.3,194.6,212.8,194.6z"/>
						<path class="st12" d="M205.7,156.2h-19.2c-0.6,0-1.1,0.4-1,0.8c0.1,0.4,0.7,0.8,1.4,0.8H206c0.6,0,1.1-0.4,1-0.8
							C206.9,156.5,206.4,156.2,205.7,156.2z"/>
						<path class="st3" d="M204.8,151.1H178c-0.7,0-1.1,0.4-1,0.8c0.1,0.5,0.8,0.8,1.4,0.8h26.6c0.7,0,1.1-0.4,1-0.8
							C206,151.5,205.4,151.1,204.8,151.1z"/>
						<path class="st3" d="M213.4,198.2h-22.2c-0.5,0-0.9,0.3-0.8,0.6s0.6,0.6,1.1,0.6h22.1c0.5,0,0.9-0.3,0.9-0.6
							C214.4,198.4,214,198.2,213.4,198.2z"/>
						<polygon class="st12" points="215.7,162.8 220.7,162.8 220.4,160.9 215.4,160.9 						"/>
						<polygon class="st12" points="216.4,167.4 221.3,167.4 221,165.6 216.1,165.6 						"/>
						<polygon class="st12" points="217,171.9 221.9,171.9 221.6,170.1 216.8,170.1 						"/>
						<polygon class="st12" points="217.7,176.3 222.4,176.3 222.2,174.5 217.4,174.5 						"/>
						<polygon class="st12" points="218.3,180.4 223,180.4 222.8,178.8 218.1,178.8 						"/>
						<polygon class="st12" points="218.9,184.5 223.5,184.5 223.3,182.9 218.7,182.9 						"/>
						<polygon class="st12" points="219.5,188.4 224,188.4 223.8,186.9 219.3,186.9 						"/>
						<polygon class="st12" points="220.1,192.2 224.5,192.2 224.3,190.7 219.9,190.7 						"/>
						<polygon class="st12" points="220.6,195.9 225,195.9 224.8,194.4 220.4,194.4 						"/>
						<polygon class="st12" points="214.9,158 220,158 219.8,156 214.7,156 						"/>
						<polygon class="st12" points="214.2,153 219.4,153 219.1,150.9 213.9,150.9 						"/>
						<polygon class="st12" points="221.2,199.4 225.5,199.4 225.3,198 221,198 						"/>
						<path class="st3" d="M247.5,191.5c0-0.3,0.4-0.6,1-0.6h74.1c0.6,0,0.9,0.3,0.9,0.6c-0.1,0.3-0.6,0.6-1.2,0.6h-73.7
							C248,192.1,247.6,191.8,247.5,191.5z"/>
						<path class="st3" d="M323.4,188.3h-41c-0.6,0-1-0.3-1-0.6c0-0.3,0.5-0.6,1.1-0.6h41.2c0.6,0,1,0.3,0.9,0.6
							C324.5,188,324,188.3,323.4,188.3z"/>
						<path class="st12" d="M272.6,188.3h-12.8c-0.6,0-1-0.3-1-0.6c0-0.3,0.5-0.6,1.1-0.6h12.8c0.6,0,1,0.3,1,0.6
							C273.7,188,273.2,188.3,272.6,188.3z"/>
						<path class="st3" d="M299.3,184.3h-57.9c-0.6,0-1.1-0.3-1.1-0.6s0.4-0.6,1-0.6h58.2c0.6,0,1,0.3,0.9,0.6
							C300.4,184,299.8,184.3,299.3,184.3z"/>
						<path class="st12" d="M229.3,183h4.1c0.6,0,1.1,0.3,1.1,0.6c0,0.4-0.4,0.6-1,0.6h-4.1c-0.6,0-1.1-0.3-1.1-0.6
							C228.3,183.3,228.7,183,229.3,183z"/>
						<path class="st3" d="M307.6,179.6c-0.1,0.4-0.6,0.7-1.2,0.7h-54.5c-0.6,0-1.1-0.3-1.1-0.7c0-0.4,0.5-0.7,1.1-0.7h54.8
							C307.3,178.9,307.7,179.2,307.6,179.6z"/>
						<path class="st3" d="M228.9,178.9h15.5c0.6,0,1.1,0.3,1.1,0.7c0,0.4-0.5,0.7-1,0.7H229c-0.6,0-1.1-0.3-1.1-0.7
							C227.8,179.2,228.3,178.9,228.9,178.9z"/>
						<path class="st3" d="M228.4,174.7h59.5c0.6,0,1.1,0.3,1,0.7c-0.1,0.4-0.6,0.7-1.2,0.7h-59.2c-0.6,0-1.1-0.3-1.2-0.7
							C227.3,175,227.8,174.7,228.4,174.7z"/>
						<path class="st3" d="M267,171.7c-0.6,0-1.1-0.3-1.1-0.7c0-0.4,0.5-0.7,1.1-0.7h31.4c0.6,0,1.1,0.3,1,0.7
							c-0.1,0.4-0.6,0.7-1.2,0.7H267z"/>
						<path class="st3" d="M227.9,170.3h27.2c0.6,0,1.1,0.3,1.1,0.7c0,0.4-0.5,0.7-1.1,0.7h-27c-0.6,0-1.1-0.3-1.2-0.7
							C226.9,170.6,227.3,170.3,227.9,170.3z"/>
						<path class="st3" d="M329.4,167.2h-74.8c-0.6,0-1.1-0.3-1.1-0.7c0-0.4,0.5-0.7,1.1-0.7h75.2c0.6,0,1,0.3,0.9,0.7
							C330.6,166.9,330,167.2,329.4,167.2z"/>
						<path class="st3" d="M330.7,162.6H265c-0.6,0-1.1-0.3-1.1-0.8c0-0.4,0.5-0.8,1.2-0.8h66.2c0.6,0,1.1,0.3,0.9,0.8
							C332,162.3,331.4,162.6,330.7,162.6z"/>
						<path class="st12" d="M332.1,157.8h-13.8c-0.6,0-1.1-0.4-1-0.8c0.1-0.4,0.7-0.8,1.4-0.8h13.9c0.6,0,1.1,0.4,0.9,0.8
							S332.8,157.8,332.1,157.8z"/>
						<path class="st3" d="M308.7,157.8h-50.6c-0.6,0-1.2-0.4-1.2-0.8c0-0.4,0.5-0.8,1.2-0.8H309c0.6,0,1.1,0.4,1,0.8
							C310,157.4,309.4,157.8,308.7,157.8z"/>
						<path class="st3" d="M230.5,194.6h46.7c0.6,0,1,0.3,1,0.6c0,0.3-0.5,0.6-1.1,0.6h-46.5c-0.6,0-1-0.3-1.1-0.6
							C229.5,194.8,230,194.6,230.5,194.6z"/>
						<path class="st3" d="M230.9,198.2h71.8c0.5,0,0.9,0.3,0.9,0.6c-0.1,0.3-0.6,0.6-1.1,0.6H231c-0.5,0-1-0.3-1.1-0.6
							C229.9,198.4,230.4,198.2,230.9,198.2z"/>
						<path class="st3" d="M306.2,152.8h-36.5c-0.7,0-1.2-0.4-1.2-0.8c0-0.5,0.6-0.8,1.2-0.8h36.8c0.7,0,1.1,0.4,1,0.8
							C307.5,152.4,306.9,152.8,306.2,152.8z"/>
						<path class="st12" d="M259.3,152.8h-33.2c-0.7,0-1.2-0.4-1.3-0.8c-0.1-0.5,0.4-0.8,1.1-0.8h33.4c0.7,0,1.2,0.4,1.2,0.8
							C260.5,152.4,260,152.8,259.3,152.8z"/>
						<path class="st12" d="M287.6,194.6c0.6,0,1,0.3,0.9,0.6c0,0.3-0.5,0.6-1.1,0.6h-3.6c-0.6,0-1-0.3-0.9-0.6
							c0-0.3,0.5-0.6,1.1-0.6H287.6z"/>
						<path class="st12" d="M243.3,191.5c0,0.3-0.4,0.6-1,0.6h-4.9c-0.6,0-1-0.3-1.1-0.6s0.4-0.6,1-0.6h4.9
							C242.8,190.9,243.3,191.1,243.3,191.5z"/>
						<path class="st12" d="M302.6,175.4c-0.1,0.4-0.6,0.7-1.2,0.7h-5.8c-0.6,0-1-0.3-1-0.7c0.1-0.4,0.6-0.7,1.2-0.7h5.8
							C302.3,174.7,302.7,175,302.6,175.4z"/>
						<path class="st12" d="M320.6,178.9c0.6,0,1,0.3,0.9,0.7c-0.1,0.4-0.7,0.7-1.2,0.7h-4.6c-0.6,0-1-0.3-0.9-0.7
							c0.1-0.4,0.6-0.7,1.2-0.7H320.6z"/>
						<path class="st12" d="M245.6,167.2c-0.6,0-1.1-0.3-1.2-0.7c0-0.4,0.5-0.7,1.1-0.7h4.9c0.6,0,1.1,0.3,1.1,0.7
							c0,0.4-0.5,0.7-1.1,0.7H245.6z"/>
					</g>
				</g>
				<g>
					<path class="st3" d="M179.1,143.4c0.4,1.3-0.4,2.3-1.6,2.3c-1.3,0-2.6-1-3-2.3c-0.4-1.3,0.3-2.3,1.6-2.3
						S178.8,142.2,179.1,143.4z"/>
					<path class="st3" d="M185.4,143.5c0.3,1.3-0.4,2.3-1.7,2.3s-2.6-1-3-2.3c-0.4-1.3,0.4-2.3,1.7-2.3S185.1,142.2,185.4,143.5z"/>
					<path class="st3" d="M191.8,143.4c0.3,1.3-0.5,2.3-1.8,2.3s-2.6-1-2.9-2.3c-0.3-1.3,0.5-2.3,1.8-2.3
						C190.2,141.1,191.5,142.2,191.8,143.4z"/>
				</g>
			</g>
			<g>
				<polygon class="st26" points="131.1,135 151.9,190.7 177,135 				"/>
				<polygon class="st26" points="166.2,206.5 207.9,135 251.6,135 190.2,206.5 				"/>
				<polygon class="st26" points="270.4,134.7 205.4,206.5 215.4,206.5 282.7,135 				"/>
				<polygon class="st26" points="283.2,206.5 354.6,135 364.7,135 291.1,206.5 				"/>
			</g>
		</g>
	</g>
</g>
<g id="Code_1_">
	<g>
		<g>
			<g>
				<g>
					<path class="st22" d="M186.4,237.6H170c-2.1,0-3.8,1.7-3.8,3.8v7.9c0,2.1,1.7,3.8,3.8,3.8h4.3l3.2,7.3l4.6-7.3h4.3
						c2.1,0,3.8-1.7,3.8-3.8v-7.9C190.2,239.3,188.5,237.6,186.4,237.6z"/>
				</g>
			</g>
			<g>
				<path class="st10" d="M175.9,242.1c0-0.4,0.3-0.7,0.8-0.7c0.5,0,0.8,0.3,0.8,0.7c0,0.4-0.3,0.8-0.8,0.8
					C176.3,242.8,175.9,242.5,175.9,242.1z M176.1,243.7h1.2v5.3h-1.2V243.7z"/>
				<path class="st10" d="M180.3,243.4v0.3h1.5v1h-1.4v4.3h-1.2v-4.3h-0.9v-1h0.9v-0.3c0-1.1,0.7-1.8,1.9-1.8c0.4,0,0.8,0.1,1.1,0.3
					l-0.3,0.9c-0.2-0.1-0.4-0.2-0.7-0.2C180.6,242.6,180.3,242.9,180.3,243.4z"/>
			</g>
		</g>
		<g>
			<g>
				<g>
					<path class="st22" d="M236,238.7h-16.3c-2.1,0-3.8,1.7-3.8,3.8v7.9c0,2.1,1.7,3.8,3.8,3.8h4.3l3.2,7.3l4.6-7.3h4.3
						c2.1,0,3.8-1.7,3.8-3.8v-7.9C239.8,240.4,238.1,238.7,236,238.7z"/>
				</g>
			</g>
			<g>
				<path class="st10" d="M223.1,247.9H219c0.1,0.8,0.8,1.3,1.7,1.3c0.6,0,1.1-0.2,1.4-0.6l0.7,0.8c-0.5,0.6-1.2,0.9-2.1,0.9
					c-1.8,0-2.9-1.1-2.9-2.7c0-1.6,1.2-2.7,2.7-2.7c1.5,0,2.7,1.1,2.7,2.7C223.1,247.6,223.1,247.8,223.1,247.9z M218.9,247.1h3
					c-0.1-0.8-0.7-1.3-1.5-1.3C219.7,245.8,219.1,246.3,218.9,247.1z"/>
				<path class="st10" d="M224.3,242.8h1.2v7.4h-1.2V242.8z"/>
				<path class="st10" d="M226.6,249.6l0.5-0.9c0.5,0.3,1.2,0.5,1.8,0.5c0.8,0,1.1-0.2,1.1-0.6c0-1-3.3-0.1-3.3-2.2
					c0-1,0.9-1.7,2.3-1.7c0.7,0,1.5,0.2,2,0.5l-0.5,0.9c-0.5-0.3-1-0.4-1.5-0.4c-0.8,0-1.1,0.2-1.1,0.6c0,1.1,3.3,0.1,3.3,2.2
					c0,1-0.9,1.6-2.4,1.6C228,250.2,227.1,249.9,226.6,249.6z"/>
				<path class="st10" d="M237.3,247.9h-4.2c0.1,0.8,0.8,1.3,1.7,1.3c0.6,0,1.1-0.2,1.4-0.6l0.7,0.8c-0.5,0.6-1.2,0.9-2.1,0.9
					c-1.8,0-2.9-1.1-2.9-2.7c0-1.6,1.2-2.7,2.7-2.7c1.5,0,2.7,1.1,2.7,2.7C237.3,247.6,237.3,247.8,237.3,247.9z M233.1,247.1h3
					c-0.1-0.8-0.7-1.3-1.5-1.3C233.8,245.8,233.2,246.3,233.1,247.1z"/>
			</g>
		</g>
		<g>
			<g>
				<g>
					<path class="st22" d="M284.1,238.2h-16.3c-2.1,0-3.8,1.7-3.8,3.8v7.9c0,2.1,1.7,3.8,3.8,3.8h4.3l3.2,7.3l4.6-7.3h4.3
						c2.1,0,3.8-1.7,3.8-3.8V242C288,239.9,286.3,238.2,284.1,238.2z"/>
				</g>
			</g>
			<g>
				<path class="st10" d="M271.6,244.1v0.3h1.5v1h-1.4v4.3h-1.2v-4.3h-0.9v-1h0.9v-0.3c0-1.1,0.7-1.8,1.9-1.8c0.4,0,0.8,0.1,1.1,0.3
					l-0.3,0.9c-0.2-0.1-0.4-0.2-0.7-0.2C271.8,243.2,271.6,243.5,271.6,244.1z"/>
				<path class="st10" d="M273.3,247c0-1.6,1.2-2.7,2.8-2.7c1.6,0,2.8,1.1,2.8,2.7s-1.2,2.7-2.8,2.7
					C274.5,249.7,273.3,248.6,273.3,247z M277.7,247c0-1-0.7-1.7-1.6-1.7c-0.9,0-1.6,0.6-1.6,1.7s0.7,1.7,1.6,1.7
					C277.1,248.7,277.7,248,277.7,247z"/>
				<path class="st10" d="M283.3,244.3v1.2c-0.1,0-0.2,0-0.3,0c-0.9,0-1.5,0.6-1.5,1.6v2.6h-1.2v-5.3h1.2v0.8
					C281.7,244.6,282.4,244.3,283.3,244.3z"/>
			</g>
		</g>
		<g>
			<g>
				<g>
					<path class="st22" d="M331.6,237.6h-16.3c-2.1,0-3.8,1.7-3.8,3.8v7.9c0,2.1,1.7,3.8,3.8,3.8h4.3l3.2,7.3l4.6-7.3h4.3
						c2.1,0,3.8-1.7,3.8-3.8v-7.9C335.4,239.3,333.7,237.6,331.6,237.6z"/>
				</g>
			</g>
			<g>
				<path class="st10" d="M321.3,243.4h4.6v1h-4.6V243.4z M321.3,245.9h4.6v1h-4.6V245.9z"/>
			</g>
		</g>
		<g>
			<g>
				<g>
					<path class="st22" d="M211.2,228.4h-16.3c-2.1,0-3.8,1.7-3.8,3.8v7.9c0,2.1,1.7,3.8,3.8,3.8h4.3l3.2,7.3l4.6-7.3h4.3
						c2.1,0,3.8-1.7,3.8-3.8v-7.9C215.1,230.1,213.3,228.4,211.2,228.4z"/>
				</g>
			</g>
			<g>
				<path class="st10" d="M199.2,231.7h2.4v1h-1.1v7.3h1.1v1h-2.4V231.7z"/>
				<path class="st10" d="M204.7,241v-1h1.1v-7.3h-1.1v-1h2.4v9.3H204.7z"/>
			</g>
		</g>
		<g>
			<g>
				<g>
					<path class="st22" d="M259.7,227.6h-16.3c-2.1,0-3.8,1.7-3.8,3.8v7.9c0,2.1,1.7,3.8,3.8,3.8h4.3l3.2,7.3l4.6-7.3h4.3
						c2.1,0,3.8-1.7,3.8-3.8v-7.9C263.5,229.3,261.8,227.6,259.7,227.6z"/>
				</g>
			</g>
			<g>
				<path class="st10" d="M248.2,235.5c0.4,0.1,0.6,0.4,0.6,1v1.9c0,0.5,0.2,0.8,0.7,0.8h0.2v1h-0.5c-1.1,0-1.7-0.6-1.7-1.6v-2
					c0-0.3-0.2-0.5-0.4-0.5h-0.3v-1h0.3c0.3,0,0.4-0.1,0.4-0.5v-2c0-1.1,0.6-1.6,1.7-1.6h0.5v1h-0.2c-0.5,0-0.7,0.3-0.7,0.8v1.9
					C248.8,235.1,248.6,235.3,248.2,235.5z"/>
				<path class="st10" d="M255.8,235v1h-0.3c-0.3,0-0.4,0.1-0.4,0.5v2c0,1.1-0.6,1.6-1.7,1.6h-0.5v-1h0.2c0.5,0,0.7-0.3,0.7-0.8
					v-1.9c0-0.6,0.2-0.9,0.6-1c-0.4-0.1-0.6-0.4-0.6-1v-1.9c0-0.5-0.2-0.8-0.7-0.8h-0.2v-1h0.5c1.1,0,1.7,0.6,1.7,1.6v2
					c0,0.3,0.2,0.5,0.4,0.5L255.8,235L255.8,235z"/>
			</g>
		</g>
		<g>
			<g>
				<g>
					<path class="st22" d="M307.7,226h-16.3c-2.1,0-3.8,1.7-3.8,3.8v7.9c0,2.1,1.7,3.8,3.8,3.8h4.3l3.2,7.3l4.6-7.3h4.3
						c2.1,0,3.8-1.7,3.8-3.8v-7.9C311.5,227.7,309.8,226,307.7,226z"/>
				</g>
			</g>
			<g>
				<path class="st10" d="M298.9,231.8c0-0.5,0.4-0.8,0.8-0.8c0.4,0,0.8,0.3,0.8,0.8c0,0.5-0.4,0.8-0.8,0.8
					C299.3,232.6,298.9,232.3,298.9,231.8z M300.5,235.6c0,0.2,0,0.4-0.2,0.9l-0.5,1.4H299l0.4-1.5c-0.3-0.1-0.5-0.4-0.5-0.7
					c0-0.5,0.3-0.8,0.8-0.8C300.2,234.8,300.5,235.1,300.5,235.6z"/>
			</g>
		</g>
		<g>
			<g>
				<g>
					<path class="st22" d="M243.9,364.7h16.3c2.1,0,3.8-1.7,3.8-3.8v-7.9c0-2.1-1.7-3.8-3.8-3.8H256l-1.2-7.3l-6.5,7.3h-4.3
						c-2.1,0-3.8,1.7-3.8,3.8v7.9C240.1,363,241.8,364.7,243.9,364.7z"/>
				</g>
			</g>
			<g>
				<path class="st10" d="M249.7,355.3l-3.4,1.3l3.4,1.3v1l-4.6-1.8V356l4.6-1.8V355.3z"/>
				<path class="st10" d="M253.3,351.6h1.1l-3.3,9.4H250L253.3,351.6z"/>
				<path class="st10" d="M259.2,356v1.1l-4.6,1.8v-1l3.4-1.3l-3.4-1.3v-1L259.2,356z"/>
			</g>
		</g>
		<g>
			<g>
				<g>
					<g>
						<path class="st22" d="M140.2,306.9h16.3c2.1,0,3.8-1.7,3.8-3.8v-7.9c0-2.1-1.7-3.8-3.8-3.8h-4.3l0.9-7.3l-8.7,7.3h-4.3
							c-2.1,0-3.8,1.7-3.8,3.8v7.9C136.4,305.2,138.1,306.9,140.2,306.9z"/>
					</g>
				</g>
			</g>
			<g>
				<path class="st10" d="M145.1,301.9c0-0.4,0.3-0.8,0.8-0.8c0.5,0,0.8,0.3,0.8,0.8s-0.3,0.8-0.8,0.8
					C145.4,302.6,145.1,302.3,145.1,301.9z M145.1,295.6h1.5l-0.2,4.6h-1L145.1,295.6z"/>
				<path class="st10" d="M147.9,297.4h4.6v1h-4.6V297.4z M147.9,299.8h4.6v1h-4.6V299.8z"/>
			</g>
		</g>
	</g>
</g>
<g id="Mouse">
	<g>
		<g>
			<g>
				<g>
					<g>
						<path id="XMLID_4_" class="st3" d="M401.4,297.9c0,3.2-0.3,6.3-0.7,9.2c-2.2,13.4-9.3,23.1-17.6,23.1c-0.7,0-1.5-0.1-2.2-0.2
							c-9.1-1.9-16.1-15.6-16.1-32.1c0-17.8,8.2-24.2,18.3-24.2C393.2,273.7,401.4,280.1,401.4,297.9z"/>
					</g>
					<g>
						<defs>
							<path id="SVGID_13_" d="M401.4,297.9c0,3.2-0.3,6.3-0.7,9.2c-2.2,13.4-9.3,23.1-17.6,23.1c-0.7,0-1.5-0.1-2.2-0.2
								c-9.1-1.9-16.1-15.6-16.1-32.1c0-17.8,8.2-24.2,18.3-24.2C393.2,273.7,401.4,280.1,401.4,297.9z"/>
						</defs>
						<clipPath id="SVGID_14_">
							<use xlink:href="#SVGID_13_"  style="overflow:visible;"/>
						</clipPath>
						<g class="st27">
							<path class="st1" d="M394.7,298.1c0.7,9.6-1,19.2-3.7,28.4c6.9-5.7,10.1-14.6,13-23.1c2.1-6.1,4.2-12.5,3.8-19
								c-0.4-6.5-3.9-13.2-9.9-15.5c-3-1.1-6.4-1-9.4,0.2c-5.1,2-2.3,3.7-0.2,7.4C392.2,283,394.2,290.6,394.7,298.1z"/>
							<path class="st12" d="M394.7,298.1c0.7,9.6-1,19.2-3.7,28.4c6.9-5.7,10.1-14.6,13-23.1c2.1-6.1,4.2-12.5,3.8-19
								c-0.4-6.5-3.9-13.2-9.9-15.5c-3-1.1-6.4-1-9.4,0.2c-5.1,2-2.3,3.7-0.2,7.4C392.2,283,394.2,290.6,394.7,298.1z"/>
						</g>
					</g>
					<g>
						<path class="st16" d="M401.4,297.9c0,3.2-0.3,6.3-0.7,9.2c-2.2,13.4-9.3,23.1-17.6,23.1c-0.7,0-1.5-0.1-2.2-0.2
							c-9.1-1.9-16.1-15.6-16.1-32.1c0-17.8,8.2-24.2,18.3-24.2C393.2,273.7,401.4,280.1,401.4,297.9z"/>
					</g>
				</g>
				<g>
					<path class="st6" d="M392.9,314.3c-1.2,4.1-3.3,8-6,11.3"/>
					<path class="st16" d="M393.5,312.1c-0.1,0.4-0.2,0.9-0.3,1.3"/>
					<path class="st6" d="M393.4,297.9c1,4.1,1.1,8.4,0.4,12.6"/>
				</g>
				<path class="st16" d="M364.7,297.9c0,0,20.9-8.2,36.7,0"/>
				<path class="st6" d="M383,273.7c0,0,2.1,7.7,2.3,20.3"/>
				<path class="st25" d="M386,283.2c0.3,2.4-0.1,4.5-0.9,4.6c-0.8,0.1-1.6-1.7-1.9-4.1c-0.3-2.4,0.1-4.5,0.9-4.6
					C384.8,278.9,385.7,280.7,386,283.2z"/>
			</g>
		</g>
		<path class="st16" d="M374.8,336.4h-24.4c-3,0-5.6-2.3-5.9-5.2c-0.1-0.3-0.1-0.5-0.1-0.8v-57.7c0-0.3,0-0.6,0.1-0.8
			c0.4-2.9,2.9-5.2,5.9-5.2h69.4c1.1,0,2,0.3,2.9,0.7"/>
	</g>
</g>
</svg>
