<svg height="512.00003pt" viewBox="0 0 512.00003 512.00003" width="512.00003pt" xmlns="http://www.w3.org/2000/svg"><path d="m503.464844 256c0 136.671875-110.792969 247.464844-247.464844 247.464844-4.265625 0-8.535156-.082032-12.714844-.339844h-.171875c-131.441406-6.910156-234.472656-115.503906-234.472656-247.125s103.03125-240.214844 234.472656-247.125h.171875c4.179688-.257812 8.449219-.339844 12.714844-.339844 136.671875 0 247.464844 110.792969 247.464844 247.464844zm0 0" fill="#00695c"/><path d="m477.867188 256c-.003907 131.664062-103.097657 240.269531-234.582032 247.125h-.171875c-131.441406-6.910156-234.472656-115.503906-234.472656-247.125s103.03125-240.214844 234.472656-247.125h.171875c131.484375 6.855469 234.578125 115.460938 234.582032 247.125zm0 0" fill="#009688"/><path d="m435.457031 158.378906c-12.175781-2.691406-24.574219-4.261718-37.035156-4.695312-29.886719-52.222656-81.21875-88.667969-140.375-99.667969.941406-1.109375 1.878906-2.21875 2.902344-3.328125 73.242187 2.109375 139.78125 43.171875 174.507812 107.691406zm0 0" fill="#1566c0"/><path d="m398.421875 153.683594c-2.816406-.167969-5.71875-.253906-8.621094-.253906-5.886719 0-11.773437.253906-17.578125.769531-13.25 1.023437-26.367187 3.339843-39.167968 6.910156v.085937c-24.292969 6.566407-47.195313 17.496094-67.582032 32.253907-9.152344 6.496093-17.746094 13.746093-25.6875 21.675781-10.273437 10.121094-19.480468 21.273438-27.476562 33.28125-2.890625-10.792969-4.859375-21.8125-5.886719-32.941406 0-.425782-.085937-.765625-.085937-1.191406-.683594-6.808594-1.027344-13.640626-1.023438-20.480469-.011719-17.914063 2.28125-35.753907 6.824219-53.078125 8.265625-32.109375 23.996093-61.816406 45.910156-86.699219 59.15625 11 110.488281 47.445313 140.375 99.667969zm0 0" fill="#2296f3"/><path d="m398.421875 153.683594-26.199219.515625c5.804688-.515625 11.691406-.769531 17.578125-.769531 2.902344 0 5.804688.085937 8.621094.253906zm0 0" fill="#2296f3"/><path d="m212.136719 140.714844c-4.542969 17.324218-6.835938 35.164062-6.824219 53.078125-.015625 7.238281.355469 14.472656 1.109375 21.671875 1.027344 11.128906 2.996094 22.148437 5.886719 32.941406 3.613281 13.976562 8.613281 27.554688 14.933594 40.53125-10.765626-2.902344-21.269532-6.699219-31.402344-11.347656-40.707032-18.285156-74.601563-48.957032-96.851563-87.636719-7.734375-13.265625-13.972656-27.347656-18.605469-41.984375v-.085938c37.390626-60.480468 103.40625-97.3125 174.507813-97.367187 2.046875 0 4.011719 0 6.058594.171875-23.386719 25.566406-40.148438 56.476562-48.8125 90.027344zm0 0" fill="#ffeb3a"/><path d="m270.078125 296.191406c-7.9375 7.929688-16.53125 15.179688-25.683594 21.675782-20.425781 14.640624-43.277343 25.558593-67.5 32.253906-18.496093 5.195312-37.621093 7.808594-56.832031 7.765625-15.351562.015625-30.660156-1.644531-45.652344-4.949219h-.085937c-34.8125-64.480469-32.5-142.65625 6.058593-204.96875 4.632813 14.636719 10.871094 28.71875 18.605469 41.984375 22.25 38.679687 56.144531 69.351563 96.851563 87.636719 10.132812 4.648437 20.636718 8.445312 31.402344 11.347656 13.996093 3.863281 28.351562 6.296875 42.835937 7.253906zm0 0" fill="#ff5722"/><path d="m297.726562 370.515625c-4.816406 18.570313-12.136718 36.398437-21.757812 52.992187-7.621094 13.335938-16.691406 25.785157-27.050781 37.121094-73.238281-2.117187-139.773438-43.175781-174.507813-107.691406 14.992188 3.304688 30.300782 4.964844 45.652344 4.949219 19.210938.042969 38.335938-2.570313 56.832031-7.765625 24.222657-6.695313 47.074219-17.613282 67.5-32.253906 9.152344-6.496094 17.746094-13.746094 25.683594-21.675782 10.242187-10.179687 19.472656-21.324218 27.566406-33.28125 2.820313 10.808594 4.789063 21.824219 5.886719 32.941406 2.539062 25.035157.574219 50.324219-5.804688 74.664063zm0 0" fill="#f44335"/><path d="m429.398438 363.433594c-37.375 60.496094-103.398438 97.335937-174.507813 97.367187-1.960937 0-4.011719 0-5.972656-.171875 8.140625-8.839844 15.453125-18.40625 21.84375-28.585937 1.792969-2.816407 3.585937-5.632813 5.207031-8.535157 9.621094-16.59375 16.941406-34.421874 21.757812-52.992187 6.378907-24.339844 8.34375-49.628906 5.804688-74.664063-1.097656-11.117187-3.066406-22.132812-5.886719-32.941406-3.628906-13.980468-8.660156-27.5625-15.019531-40.53125 35.164062 9.585938 67.277344 28.035156 93.269531 53.589844 2.984375 2.902344 5.886719 5.886719 8.617188 9.042969 10.066406 11.128906 18.933593 23.285156 26.453125 36.269531 7.59375 13.371094 13.773437 27.5 18.433594 42.152344zm0 0" fill="#ad1457"/><path d="m409.601562 337.835938c-30.765624 49.730468-81.261718 83.996093-138.839843 94.207031 1.792969-2.816407 3.585937-5.632813 5.207031-8.535157 9.621094-16.59375 16.941406-34.421874 21.757812-52.992187 6.378907-24.339844 8.34375-49.628906 5.804688-74.664063-1.097656-11.117187-3.066406-22.132812-5.886719-32.941406-3.628906-13.980468-8.660156-27.5625-15.019531-40.53125 35.164062 9.585938 67.277344 28.035156 93.269531 53.589844 2.984375 2.902344 5.886719 5.886719 8.617188 9.042969 2.304687 3.414062 4.523437 7 6.65625 10.667969 7.59375 13.371093 13.769531 27.5 18.433593 42.15625zm0 0" fill="#e91e63"/><path d="m460.117188 255.660156c.015624 38.085938-10.625 75.417969-30.71875 107.773438-4.222657-13.265625-9.710938-26.097656-16.386719-38.3125-.597657-1.28125-1.363281-2.5625-2.046875-3.839844-35.859375-61.644531-100.019532-101.433594-171.179688-106.15625 7.941406-7.929688 16.535156-15.179688 25.6875-21.675781 20.386719-14.757813 43.289063-25.6875 67.582032-32.253907v-.085937c12.695312-3.523437 25.695312-5.835937 38.828124-6.910156 5.886719-.515625 11.859376-.769531 17.917969-.769531 15.355469-.007813 30.660157 1.652343 45.65625 4.949218h.085938c16.183593 29.867188 24.632812 63.308594 24.574219 97.28125zm0 0" fill="#6a1b9a"/><path d="m425.128906 255.660156c.019532 23.679688-4.082031 47.183594-12.117187 69.460938-.597657-1.28125-1.363281-2.5625-2.046875-3.839844-35.859375-61.644531-100.019532-101.433594-171.179688-106.15625 7.941406-7.929688 16.535156-15.179688 25.6875-21.675781 20.386719-14.757813 43.289063-25.6875 67.582032-32.253907v-.085937c12.695312-3.523437 25.695312-5.835937 38.828124-6.910156 9.617188.695312 19.171876 2.09375 28.585938 4.179687h.085938c16.183593 29.867188 24.632812 63.308594 24.574218 97.28125zm0 0" fill="#9d27b0"/><path d="m297.644531 262.910156c-8.09375 11.957032-17.324219 23.101563-27.566406 33.28125-14.484375-.957031-28.839844-3.390625-42.835937-7.253906-6.320313-12.976562-11.320313-26.554688-14.933594-40.53125 7.996094-12.007812 17.203125-23.160156 27.476562-33.28125 14.492188.945312 28.84375 3.375 42.839844 7.253906 6.359375 12.96875 11.390625 26.550782 15.019531 40.53125zm0 0" fill="#009688"/><path d="m256 0c-141.386719 0-256 114.613281-256 256s114.613281 256 256 256 256-114.613281 256-256c-.160156-141.320312-114.679688-255.839844-256-256zm0 494.933594c-131.960938 0-238.933594-106.972656-238.933594-238.933594s106.972656-238.933594 238.933594-238.933594 238.933594 106.972656 238.933594 238.933594c-.152344 131.898438-107.035156 238.78125-238.933594 238.933594zm0 0"/><path d="m261.683594 42.1875h-.546875c-2.097657-.152344-4.136719-.1875-6.246094-.1875-74.097656-.144531-142.941406 38.246094-181.761719 101.359375-.058594.113281-.082031.238281-.144531.34375-40.039063 64.878906-42.386719 146.199219-6.160156 213.28125.058593.109375.171875.167969.238281.273437 36.214844 66.804688 105.152344 109.390626 181.105469 111.871094h.066406.453125.273438c1.96875.136719 3.984374.179688 5.972656.179688 75.222656.03125 144.917968-39.507813 183.488281-104.09375 38.566406-64.585938 40.324219-144.695313 4.621094-210.90625-.0625-.109375-.179688-.171875-.25-.273438-36.226563-66.796875-105.160157-109.371094-181.109375-111.847656zm156.851562 104.585938c-1.9375-.246094-3.882812-.410157-5.828125-.605469-1.085937-.113281-2.160156-.246094-3.242187-.34375-4.105469-.363281-8.21875-.636719-12.332032-.765625h-.136718c-4.335938-.144532-8.667969-.144532-12.996094 0-.707031 0-1.417969.066406-2.132812.09375-3.449219.117187-6.886719.316406-10.316407.597656-1.230469.101562-2.441406.230469-3.660156.347656-2.945313.292969-5.882813.632813-8.800781 1.042969-1.347656.179687-2.6875.375-4.027344.578125-2.917969.460938-5.808594 1-8.695312 1.570312-1.210938.242188-2.429688.460938-3.632813.71875-4.019531.851563-8.015625 1.835938-11.949219 2.933594-.367187.105469-.730468.230469-1.082031.378906-24.84375 6.847657-48.253906 18.101563-69.121094 33.226563-9.535156 6.746094-18.492187 14.277344-26.769531 22.519531-4.828125 4.761719-9.386719 9.832032-13.796875 15.0625-.632813.757813-1.289063 1.484375-1.921875 2.25-.425781.53125-.851562 1.015625-1.304688 1.546875-.734374-4.445312-1.398437-8.902343-1.816406-13.398437-.71875-6.898438-1.070312-13.832032-1.058594-20.769532 0-4.890624.222657-9.761718.578126-14.617187.871093-12.261719 2.871093-24.414063 5.976562-36.308594 4.625-17.804687 11.613281-34.90625 20.785156-50.851562 3.175782-5.453125 6.621094-10.699219 10.242188-15.785157.417968-.589843.851562-1.203124 1.234375-1.785156 3.457031-4.777344 7.109375-9.335937 10.898437-13.722656.390625-.449219.777344-.902344 1.167969-1.347656 62.1875 3.203125 119.195313 35.625 153.738281 87.433594zm-158.722656 79.28125h.179688c4.960937.855468 9.890624 1.9375 14.796874 3.152343l1.777344.441407c.253906.554687.511719 1.101562.757813 1.65625 2.101562 4.617187 4.078125 9.25 5.8125 13.910156l.09375.230468c1.757812 4.726563 3.25 9.472657 4.605469 14.207032l.4375 1.519531c-3.292969 4.667969-6.640626 9.300781-10.242188 13.652344l-.132812.152343c-3.570313 4.269532-7.382813 8.332032-11.242188 12.296876l-1.578125-.136719c-5.007813-.46875-10.035156-1.066407-15.050781-1.910157-5.007813-.851562-10.011719-1.953124-14.992188-3.175781l-1.707031-.425781-.769531-1.707031c-2.074219-4.617188-4.042969-9.25-5.769532-13.910157l-.066406-.1875c-1.707031-4.71875-3.226562-9.453124-4.589844-14.199218-.15625-.519532-.300781-1.039063-.445312-1.570313 3.234375-4.667969 6.546875-9.28125 10.144531-13.652343l.171875-.1875c3.542969-4.265626 7.363282-8.300782 11.238282-12.261719l1.597656.144531c4.972656.511719 9.984375 1.109375 14.984375 1.953125zm-17.304688-166.621094c-.410156.539062-.777343 1.109375-1.183593 1.65625-1.835938 2.433594-3.601563 4.925781-5.34375 7.449218-.808594 1.167969-1.636719 2.320313-2.433594 3.507813-2.464844 3.730469-4.863281 7.519531-7.132813 11.417969-9.9375 17.273437-17.515624 35.800781-22.527343 55.089844-4.726563 18.03125-7.113281 36.597656-7.109375 55.238281-.015625 7.5.367187 14.996093 1.144531 22.457031 1.074219 11.578125 3.121094 23.039062 6.117187 34.273438.992188 3.847656 2.117188 7.679687 3.328126 11.535156.394531 1.230468.855468 2.457031 1.253906 3.6875.855468 2.558594 1.777344 5.203125 2.757812 7.796875.179688.472656.316406.941406.496094 1.402343-4.265625-1.605468-8.535156-3.277343-12.554688-5.121093-39.066406-17.550781-71.597656-46.992188-92.945312-84.121094-1.808594-3.125-3.515625-6.28125-5.117188-9.464844-.546874-1.058593-1.035156-2.125-1.554687-3.191406-1.039063-2.125-2.082031-4.265625-3.046875-6.398437-.570312-1.273438-1.089844-2.5625-1.636719-3.839844-.855469-1.957032-1.648437-3.910156-2.40625-5.871094-.523437-1.347656-1-2.707031-1.496093-4.0625-.492188-1.355469-.851563-2.558594-1.320313-3.832031 33.71875-52.496094 90.4375-85.777344 152.710937-89.609375zm-163.746093 108.929687c.257812.605469.5625 1.195313.855469 1.800781 1.195312 2.78125 2.472656 5.546876 3.796874 8.300782.613282 1.296875 1.195313 2.5625 1.84375 3.875 2.003907 3.992187 4.101563 7.953125 6.363282 11.863281 23.140625 40.214844 58.378906 72.105469 100.695312 91.132813 10.558594 4.847656 21.507813 8.800781 32.726563 11.828124 3.964843 1.09375 7.949219 2.046876 11.945312 2.917969 1.261719.273438 2.558594.488281 3.789063.742188 2.746094.546875 5.484375 1.078125 8.234375 1.519531.417969.070312.851562.164062 1.253906.230469-3.5 2.875-7.058594 5.710937-10.761719 8.347656-19.621094 14.070313-41.578125 24.558594-64.851562 30.984375-3.839844 1.089844-7.679688 2.046875-11.648438 2.890625-1.40625.308594-2.839844.523437-4.265625.792969-2.5625.488281-5.078125 1-7.679687 1.390625-1.707032.257812-3.414063.421875-5.121094.640625-2.3125.292968-4.632812.617187-6.964844.855468-1.800781.160157-3.617187.238282-5.425781.359376-2.261719.144531-4.515625.3125-6.785156.390624-1.851563.058594-3.703125 0-5.554688.042969-2.234375 0-4.460937.042969-6.699219 0-1.867187-.050781-3.726562-.179687-5.597656-.28125-2.21875-.121093-4.4375-.230469-6.65625-.417969-1.851562-.164062-3.695312-.394531-5.535156-.605468-2.21875-.25-4.429688-.496094-6.640625-.855469-1.808594-.273437-3.617187-.605469-5.417969-.921875-1.570312-.273438-3.132812-.570312-4.6875-.851562-28.484375-55.453126-28.933594-121.136719-1.210937-176.972657zm12.597656 196.199219c.851563.109375 1.707031.167969 2.558594.261719 1.75.214843 3.5.386719 5.257812.554687 2.039063.1875 4.078125.359375 6.117188.496094 1.878906.121094 3.746093.222656 5.625.300781 1.875.074219 3.847656.125 5.773437.152344 1.128906 0 2.253906.09375 3.414063.09375.691406 0 1.382812-.070313 2.074219-.070313 3.515624 0 7.03125-.160156 10.539062-.355468 1.023438-.050782 2.046875-.070313 3.070312-.136719 4.269532-.300781 8.535157-.753906 12.726563-1.296875 1.550781-.207031 3.097656-.453125 4.640625-.683594 3.019531-.457031 6.023438-.96875 9.003906-1.546875 1.441406-.28125 2.875-.554687 4.265625-.851562 4.265625-.921875 8.53125-1.9375 12.738281-3.125 25.1875-6.945313 48.949219-18.296875 70.179688-33.527344 9.53125-6.761719 18.480469-14.3125 26.753906-22.570313 4.785156-4.742187 9.332032-9.804687 13.726563-15.027343.660156-.773438 1.324219-1.515625 1.972656-2.3125.445313-.535157.921875-1.046875 1.367187-1.59375.734376 4.445312 1.40625 8.917969 1.859376 13.421875 2.441406 24.035156.554687 48.3125-5.574219 71.679687-4.632813 17.832031-11.664063 34.949219-20.90625 50.886719-3.121094 5.453125-6.542969 10.714844-10.136719 15.828125-.390625.554687-.75 1.117187-1.152344 1.707031-3.414062 4.804688-7.132812 9.386719-10.972656 13.855469l-1.152344 1.332031c-62.210937-3.183594-119.242187-35.625-153.769531-87.472656zm176 87.320312c.417969-.554687.792969-1.152343 1.210937-1.707031 1.832032-2.457031 3.613282-4.953125 5.339844-7.492187.804688-1.167969 1.632813-2.320313 2.40625-3.507813 2.449219-3.726562 4.8125-7.515625 7.042969-11.398437 10-17.253906 17.609375-35.789063 22.621094-55.09375 4.976562-18.933594 7.378906-38.449219 7.140625-58.027344-.078125-6.535156-.445313-13.09375-1.101563-19.675781-1.140625-11.546875-3.183593-22.984375-6.109375-34.210938-.980468-3.8125-2.097656-7.636719-3.316406-11.460937-.386719-1.21875-.855469-2.429688-1.246094-3.652344-.855468-2.617188-1.792968-5.238281-2.792968-7.859375-.167969-.449219-.304688-.902344-.476563-1.347656 1.476563.554687 2.96875 1.09375 4.4375 1.707031 1.269531.511719 2.558594 1.007812 3.824219 1.546875 3.003906 1.269531 5.972656 2.625 8.90625 4.035156.675781.324219 1.359375.621094 2.03125.945313 3.601562 1.785156 7.144531 3.6875 10.632812 5.675781.914063.519531 1.792969 1.082031 2.695313 1.613281 2.5625 1.519532 5.121093 3.0625 7.585937 4.683594 1.179688.769531 2.339844 1.570312 3.5 2.363281 2.203125 1.496094 4.371094 3.035157 6.511719 4.617188 1.167969.855469 2.335937 1.707031 3.488281 2.621093 2.1875 1.707032 4.328125 3.414063 6.445313 5.222657.980469.851562 1.976562 1.621093 2.941406 2.457031 3.023437 2.644531 5.976563 5.351562 8.859375 8.175781 13.109375 12.882813 24.417969 27.480469 33.613281 43.398438 1.792969 3.203125 3.496094 6.414062 5.117188 9.636719.546875 1.089843 1.042969 2.191406 1.570312 3.292968 1.027344 2.125 2.050781 4.265625 2.988281 6.382813.582032 1.3125 1.109376 2.628906 1.65625 3.941406.808594 1.929687 1.613282 3.855469 2.355469 5.785156.527344 1.382813 1.015625 2.757813 1.507813 4.140625.445312 1.226563.855468 2.457032 1.273437 3.683594-33.699219 52.476562-90.410156 85.726562-152.660156 89.507812zm163.667969-108.894531c-.246094-.589843-.546875-1.175781-.800782-1.773437-1.171874-2.773438-2.441406-5.53125-3.738281-8.296875-.605469-1.285157-1.167969-2.558594-1.800781-3.855469-1.988281-4.027344-4.078125-8.046875-6.332031-12.058594-9.972657-17.285156-22.246094-33.136718-36.480469-47.121094-3.367188-3.308593-6.835938-6.511718-10.410156-9.597656-21.445313-18.527344-46.242188-32.773437-73.046875-41.96875-4.457031-1.535156-8.976563-2.925781-13.550781-4.171875-3.933594-1.09375-7.902344-2.046875-11.878907-2.917969-1.246093-.265624-2.488281-.480468-3.726562-.726562-2.765625-.554688-5.53125-1.082031-8.304688-1.527344-.425781-.066406-.851562-.171875-1.269531-.238281 3.507812-2.886719 7.074219-5.71875 10.8125-8.378906 19.554688-14.171875 41.53125-24.652344 64.851562-30.925781.394532-.105469.777344-.238282 1.152344-.402344 3.824219-1.039063 7.679688-1.960938 11.597656-2.773438 1.210938-.246094 2.4375-.425781 3.652344-.65625 2.703125-.503906 5.410156-1.023437 8.140625-1.425781 1.464844-.210937 2.933594-.339844 4.402344-.527344 2.558594-.316406 5.015625-.640625 7.542969-.855469 1.578125-.136718 3.15625-.1875 4.734375-.289062 2.433593-.152344 4.867187-.324219 7.304687-.390625 1.640625-.054687 3.285156 0 4.933594 0h7.144531c1.703125.050781 3.410157.167969 5.117188.261719 2.320312.128906 4.644531.25 6.964843.453125 1.757813.152343 3.507813.375 5.265626.582031 2.234374.253906 4.46875.511719 6.699218.851562 1.824219.273438 3.652344.605469 5.46875.929688 1.519532.261719 3.03125.546875 4.539063.855469 28.484375 55.460937 28.890625 121.160156 1.101562 176.972656zm0 0"/></svg>