<svg id="Capa_1" enable-background="new 0 0 512 512" height="512" viewBox="0 0 512 512" width="512" xmlns="http://www.w3.org/2000/svg"><g><path d="m467.456 254.901h-64.13l-20.262 16.94c-2.365 1.977-5.349 3.06-8.431 3.06h-168.903c-4.248 0-8.235-2.053-10.701-5.512l-24.594-34.488h-123.524l-39.411 39.41v172.603l38.489 38.489h66.391l19.917 19.096h247.108l23.922-19.096h63.718l37.456-37.456v-156.002z" fill="#30579d"/><g><path d="m467.456 254.901h-24.118l28.402 28.402c5.534 5.534 8.642 13.039 8.642 20.864v131.559c0 7.826-3.109 15.331-8.642 20.864l-28.813 28.813h24.118l37.456-37.456v-156.002z" fill="#26457d"/></g><path d="m321.996 274.901h-78.759v-20.206c0-3.401 2.757-6.158 6.158-6.158h66.442c3.401 0 6.158 2.757 6.158 6.158v20.206z" fill="#beb9dd"/><path d="m367.099 79.046h-89.707c-17.014 0-30.855-13.841-30.855-30.854v-40.692h-28v40.693c0 32.452 26.402 58.854 58.855 58.854h89.707c17.013 0 30.854 13.841 30.854 30.854 0 17.014-13.841 30.854-30.854 30.854h-39.628c-32.452 0-58.854 26.401-58.854 58.854v20.929h28v-20.929c0-17.013 13.841-30.854 30.854-30.854h39.628c32.452 0 58.854-26.402 58.854-58.854s-26.402-58.855-58.854-58.855z" fill="#30579d"/><path d="m268.617 233.355h28v15.182h-28z" fill="#26457d"/><path d="m137.606 266h-56.606c-4.636 0-8.394-3.758-8.394-8.394v-22.705h73.393v22.705c0 4.636-3.758 8.394-8.393 8.394z" fill="#dd636e"/><path d="m126.897 234.901v22.705c0 4.636-3.758 8.394-8.394 8.394h19.103c4.636 0 8.394-3.758 8.394-8.394v-22.705z" fill="#da4a54"/><path d="m335.31 504.5h-165.121v-21.801c0-4.157 3.37-7.526 7.526-7.526h150.069c4.157 0 7.526 3.37 7.526 7.526z" fill="#dd636e"/><path d="m327.784 475.172h-18.025c4.157 0 7.526 3.37 7.526 7.526v21.802h18.025v-21.801c0-4.157-3.369-7.527-7.526-7.527z" fill="#da4a54"/><g><path d="m53.927 316.652h5.165c4.143 0 7.5-3.357 7.5-7.5s-3.357-7.5-7.5-7.5h-5.165c-4.143 0-7.5 3.357-7.5 7.5s3.357 7.5 7.5 7.5z"/><path d="m53.927 355.865h5.165c4.143 0 7.5-3.357 7.5-7.5s-3.357-7.5-7.5-7.5h-5.165c-4.143 0-7.5 3.357-7.5 7.5s3.357 7.5 7.5 7.5z"/><path d="m53.927 386.493h26.628c4.143 0 7.5-3.357 7.5-7.5s-3.357-7.5-7.5-7.5h-26.628c-4.143 0-7.5 3.357-7.5 7.5s3.357 7.5 7.5 7.5z"/><path d="m91.286 402.121h-37.359c-4.143 0-7.5 3.357-7.5 7.5s3.357 7.5 7.5 7.5h37.359c4.143 0 7.5-3.357 7.5-7.5s-3.357-7.5-7.5-7.5z"/><path d="m53.927 432.748c-4.143 0-7.5 3.357-7.5 7.5s3.357 7.5 7.5 7.5h5.165c4.143 0 7.5-3.357 7.5-7.5s-3.357-7.5-7.5-7.5z"/><path d="m89.782 355.865c4.143 0 7.5-3.357 7.5-7.5s-3.357-7.5-7.5-7.5h-5.165c-4.143 0-7.5 3.357-7.5 7.5s3.357 7.5 7.5 7.5z"/><path d="m89.782 432.748h-5.165c-4.143 0-7.5 3.357-7.5 7.5s3.357 7.5 7.5 7.5h5.165c4.143 0 7.5-3.357 7.5-7.5s-3.357-7.5-7.5-7.5z"/><path d="m120.474 301.652h-5.165c-4.143 0-7.5 3.357-7.5 7.5s3.357 7.5 7.5 7.5h5.165c4.143 0 7.5-3.357 7.5-7.5s-3.358-7.5-7.5-7.5z"/><path d="m120.474 340.865h-5.165c-4.143 0-7.5 3.357-7.5 7.5s3.357 7.5 7.5 7.5h5.165c4.143 0 7.5-3.357 7.5-7.5s-3.358-7.5-7.5-7.5z"/><path d="m120.474 432.748h-5.165c-4.143 0-7.5 3.357-7.5 7.5s3.357 7.5 7.5 7.5h5.165c4.143 0 7.5-3.357 7.5-7.5s-3.358-7.5-7.5-7.5z"/><path d="m145.999 316.652h5.165c4.143 0 7.5-3.357 7.5-7.5s-3.357-7.5-7.5-7.5h-5.165c-4.143 0-7.5 3.357-7.5 7.5s3.357 7.5 7.5 7.5z"/><path d="m145.999 355.865h5.165c4.143 0 7.5-3.357 7.5-7.5s-3.357-7.5-7.5-7.5h-5.165c-4.143 0-7.5 3.357-7.5 7.5s3.357 7.5 7.5 7.5z"/><path d="m145.999 447.748h97.238c4.143 0 7.5-3.357 7.5-7.5s-3.357-7.5-7.5-7.5h-97.238c-4.143 0-7.5 3.357-7.5 7.5s3.357 7.5 7.5 7.5z"/><path d="m176.69 316.652h5.165c4.143 0 7.5-3.357 7.5-7.5s-3.357-7.5-7.5-7.5h-5.165c-4.143 0-7.5 3.357-7.5 7.5s3.358 7.5 7.5 7.5z"/><path d="m176.69 355.865h5.165c4.143 0 7.5-3.357 7.5-7.5s-3.357-7.5-7.5-7.5h-5.165c-4.143 0-7.5 3.357-7.5 7.5s3.358 7.5 7.5 7.5z"/><path d="m207.381 355.865h5.166c4.143 0 7.5-3.357 7.5-7.5s-3.357-7.5-7.5-7.5h-5.166c-4.143 0-7.5 3.357-7.5 7.5s3.357 7.5 7.5 7.5z"/><path d="m243.237 340.865h-5.165c-4.143 0-7.5 3.357-7.5 7.5s3.357 7.5 7.5 7.5h5.165c4.143 0 7.5-3.357 7.5-7.5s-3.357-7.5-7.5-7.5z"/><path d="m273.929 301.652h-5.165c-4.143 0-7.5 3.357-7.5 7.5s3.357 7.5 7.5 7.5h5.165c4.143 0 7.5-3.357 7.5-7.5s-3.358-7.5-7.5-7.5z"/><path d="m273.929 340.865h-5.165c-4.143 0-7.5 3.357-7.5 7.5s3.357 7.5 7.5 7.5h5.165c4.143 0 7.5-3.357 7.5-7.5s-3.358-7.5-7.5-7.5z"/><path d="m273.929 432.748h-5.165c-4.143 0-7.5 3.357-7.5 7.5s3.357 7.5 7.5 7.5h5.165c4.143 0 7.5-3.357 7.5-7.5s-3.358-7.5-7.5-7.5z"/><path d="m299.454 316.652h5.165c4.143 0 7.5-3.357 7.5-7.5s-3.357-7.5-7.5-7.5h-5.165c-4.143 0-7.5 3.357-7.5 7.5s3.358 7.5 7.5 7.5z"/><path d="m335.311 301.652h-5.165c-4.143 0-7.5 3.357-7.5 7.5s3.357 7.5 7.5 7.5h5.165c4.143 0 7.5-3.357 7.5-7.5s-3.358-7.5-7.5-7.5z"/><path d="m335.311 340.865h-26.628c-4.143 0-7.5 3.357-7.5 7.5s3.357 7.5 7.5 7.5h26.628c4.143 0 7.5-3.357 7.5-7.5s-3.358-7.5-7.5-7.5z"/><path d="m120.474 371.493h-5.165c-4.143 0-7.5 3.357-7.5 7.5s3.357 7.5 7.5 7.5h5.165c4.143 0 7.5-3.357 7.5-7.5s-3.358-7.5-7.5-7.5z"/><path d="m145.999 386.493h5.165c4.143 0 7.5-3.357 7.5-7.5s-3.357-7.5-7.5-7.5h-5.165c-4.143 0-7.5 3.357-7.5 7.5s3.357 7.5 7.5 7.5z"/><path d="m176.69 386.493h5.165c4.143 0 7.5-3.357 7.5-7.5s-3.357-7.5-7.5-7.5h-5.165c-4.143 0-7.5 3.357-7.5 7.5s3.358 7.5 7.5 7.5z"/><path d="m207.381 386.493h5.166c4.143 0 7.5-3.357 7.5-7.5s-3.357-7.5-7.5-7.5h-5.166c-4.143 0-7.5 3.357-7.5 7.5s3.357 7.5 7.5 7.5z"/><path d="m243.237 371.493h-5.165c-4.143 0-7.5 3.357-7.5 7.5s3.357 7.5 7.5 7.5h5.165c4.143 0 7.5-3.357 7.5-7.5s-3.357-7.5-7.5-7.5z"/><path d="m273.929 371.493h-5.165c-4.143 0-7.5 3.357-7.5 7.5s3.357 7.5 7.5 7.5h5.165c4.143 0 7.5-3.357 7.5-7.5s-3.358-7.5-7.5-7.5z"/><path d="m342.811 378.993c0-4.143-3.357-7.5-7.5-7.5h-26.628c-4.143 0-7.5 3.357-7.5 7.5s3.357 7.5 7.5 7.5h19.128v23.128c0 4.143 3.357 7.5 7.5 7.5s7.5-3.357 7.5-7.5z"/><path d="m120.474 402.121h-5.165c-4.143 0-7.5 3.357-7.5 7.5s3.357 7.5 7.5 7.5h5.165c4.143 0 7.5-3.357 7.5-7.5s-3.358-7.5-7.5-7.5z"/><path d="m145.999 417.121h5.165c4.143 0 7.5-3.357 7.5-7.5s-3.357-7.5-7.5-7.5h-5.165c-4.143 0-7.5 3.357-7.5 7.5s3.357 7.5 7.5 7.5z"/><path d="m176.69 417.121h5.165c4.143 0 7.5-3.357 7.5-7.5s-3.357-7.5-7.5-7.5h-5.165c-4.143 0-7.5 3.357-7.5 7.5s3.358 7.5 7.5 7.5z"/><path d="m207.381 417.121h5.166c4.143 0 7.5-3.357 7.5-7.5s-3.357-7.5-7.5-7.5h-5.166c-4.143 0-7.5 3.357-7.5 7.5s3.357 7.5 7.5 7.5z"/><path d="m243.237 402.121h-5.165c-4.143 0-7.5 3.357-7.5 7.5s3.357 7.5 7.5 7.5h5.165c4.143 0 7.5-3.357 7.5-7.5s-3.357-7.5-7.5-7.5z"/><path d="m273.929 402.121h-5.165c-4.143 0-7.5 3.357-7.5 7.5s3.357 7.5 7.5 7.5h5.165c4.143 0 7.5-3.357 7.5-7.5s-3.358-7.5-7.5-7.5z"/><path d="m299.454 417.121h5.165c4.143 0 7.5-3.357 7.5-7.5s-3.357-7.5-7.5-7.5h-5.165c-4.143 0-7.5 3.357-7.5 7.5s3.358 7.5 7.5 7.5z"/><path d="m308.683 447.748h26.628c4.143 0 7.5-3.357 7.5-7.5s-3.357-7.5-7.5-7.5h-26.628c-4.143 0-7.5 3.357-7.5 7.5s3.357 7.5 7.5 7.5z"/><path d="m396.692 301.652h-5.165c-4.143 0-7.5 3.357-7.5 7.5s3.357 7.5 7.5 7.5h5.165c4.143 0 7.5-3.357 7.5-7.5s-3.357-7.5-7.5-7.5z"/><path d="m396.692 340.865h-5.165c-4.143 0-7.5 3.357-7.5 7.5s3.357 7.5 7.5 7.5h5.165c4.143 0 7.5-3.357 7.5-7.5s-3.357-7.5-7.5-7.5z"/><path d="m396.692 432.748h-5.165c-4.143 0-7.5 3.357-7.5 7.5s3.357 7.5 7.5 7.5h5.165c4.143 0 7.5-3.357 7.5-7.5s-3.357-7.5-7.5-7.5z"/><path d="m427.384 301.652h-5.165c-4.143 0-7.5 3.357-7.5 7.5s3.357 7.5 7.5 7.5h5.165c4.143 0 7.5-3.357 7.5-7.5s-3.358-7.5-7.5-7.5z"/><path d="m427.384 340.865h-5.165c-4.143 0-7.5 3.357-7.5 7.5s3.357 7.5 7.5 7.5h5.165c4.143 0 7.5-3.357 7.5-7.5s-3.358-7.5-7.5-7.5z"/><path d="m427.384 432.748h-5.165c-4.143 0-7.5 3.357-7.5 7.5s3.357 7.5 7.5 7.5h5.165c4.143 0 7.5-3.357 7.5-7.5s-3.358-7.5-7.5-7.5z"/><path d="m458.074 301.652h-5.165c-4.143 0-7.5 3.357-7.5 7.5s3.357 7.5 7.5 7.5h5.165c4.143 0 7.5-3.357 7.5-7.5s-3.357-7.5-7.5-7.5z"/><path d="m458.074 340.865h-5.165c-4.143 0-7.5 3.357-7.5 7.5s3.357 7.5 7.5 7.5h5.165c4.143 0 7.5-3.357 7.5-7.5s-3.357-7.5-7.5-7.5z"/><path d="m396.692 371.493h-5.165c-4.143 0-7.5 3.357-7.5 7.5s3.357 7.5 7.5 7.5h5.165c4.143 0 7.5-3.357 7.5-7.5s-3.357-7.5-7.5-7.5z"/><path d="m427.384 371.493h-5.165c-4.143 0-7.5 3.357-7.5 7.5s3.357 7.5 7.5 7.5h5.165c4.143 0 7.5-3.357 7.5-7.5s-3.358-7.5-7.5-7.5z"/><path d="m458.074 371.493h-5.165c-4.143 0-7.5 3.357-7.5 7.5s3.357 7.5 7.5 7.5h5.165c4.143 0 7.5-3.357 7.5-7.5s-3.357-7.5-7.5-7.5z"/><path d="m427.384 402.121h-5.165c-4.143 0-7.5 3.357-7.5 7.5s3.357 7.5 7.5 7.5h5.165c4.143 0 7.5-3.357 7.5-7.5s-3.358-7.5-7.5-7.5z"/><path d="m458.074 432.748h-5.165c-4.143 0-7.5 3.357-7.5 7.5s3.357 7.5 7.5 7.5h5.165c4.143 0 7.5-3.357 7.5-7.5s-3.357-7.5-7.5-7.5z"/><path d="m504.5 386.813c4.143 0 7.5-3.357 7.5-7.5v-87.368c0-1.989-.79-3.896-2.196-5.304l-37.044-37.044c-1.407-1.406-3.314-2.196-5.304-2.196h-64.13c-1.759 0-3.461.618-4.811 1.746l-20.263 16.94c-1.013.847-2.298 1.313-3.618 1.313h-45.139v-12.706c0-7.531-6.127-13.658-13.658-13.658h-11.721v-13.43c0-12.877 10.477-23.354 23.354-23.354h39.628c36.588 0 66.354-29.767 66.354-66.354s-29.766-66.354-66.354-66.354h-29.57c-4.143 0-7.5 3.357-7.5 7.5s3.357 7.5 7.5 7.5h29.57c28.316 0 51.354 23.037 51.354 51.354s-23.037 51.354-51.354 51.354h-39.628c-21.148 0-38.354 17.205-38.354 38.354v13.43h-13v-13.43c0-28.316 23.037-51.354 51.354-51.354h39.628c21.148 0 38.354-17.206 38.354-38.354s-17.205-38.354-38.354-38.354h-89.707c-28.317 0-51.354-23.037-51.354-51.354v-40.69c0-4.143-3.357-7.5-7.5-7.5s-7.5 3.357-7.5 7.5v40.692c0 36.588 29.767 66.354 66.354 66.354h89.707c12.877 0 23.354 10.477 23.354 23.354 0 12.878-10.477 23.354-23.354 23.354h-39.628c-36.588 0-66.354 29.766-66.354 66.354v13.43h-11.722c-7.531 0-13.658 6.127-13.658 13.658v12.706h-30.008c-1.82 0-3.538-.885-4.595-2.367l-24.594-34.487c-1.407-1.974-3.683-3.146-6.106-3.146h-123.523c-1.989 0-3.896.79-5.304 2.196l-39.41 39.41c-1.406 1.407-2.196 3.314-2.196 5.304v172.604c0 1.989.79 3.896 2.196 5.304l38.489 38.488c1.407 1.406 3.314 2.196 5.304 2.196h63.376l17.741 17.011c1.396 1.339 3.256 2.086 5.19 2.086h247.108c1.7 0 3.351-.578 4.68-1.639l21.868-17.458h61.092c1.989 0 3.896-.79 5.304-2.196l37.455-37.455c1.406-1.407 2.196-3.314 2.196-5.304v-38.647c0-4.143-3.357-7.5-7.5-7.5s-7.5 3.357-7.5 7.5v35.541l-33.062 33.062h-60.612c-1.7 0-3.351.578-4.68 1.639l-21.867 17.456h-33.968v-14.302c0-8.285-6.741-15.026-15.026-15.026h-94.254c-4.143 0-7.5 3.357-7.5 7.5s3.357 7.5 7.5 7.5l94.28.026v14.302h-150.112l.017-14.328h25.829c4.143 0 7.5-3.357 7.5-7.5s-3.357-7.5-7.5-7.5h-25.829c-8.285 0-15.025 6.741-15.025 15.026v14.302h-27.378l-17.741-17.011c-1.396-1.339-3.256-2.086-5.19-2.086h-63.285l-34.096-34.094v-166.391l35.017-35.017h15.09v15.205c0 8.764 7.13 15.894 15.894 15.894h56.605c8.764 0 15.894-7.13 15.894-15.894v-15.205h13.072l22.351 31.342c3.866 5.422 10.149 8.658 16.808 8.658h168.905c4.832 0 9.535-1.707 13.24-4.807l18.173-15.193h58.302l32.65 32.65v84.262c-.001 4.143 3.356 7.5 7.499 7.5zm-366.001-129.207c0 .493-.4.894-.894.894h-56.605c-.493 0-.894-.4-.894-.894v-15.205h58.393zm112.238 9.795v-11.364h63.759v11.364z"/><path d="m277.392 86.546h30.149c4.143 0 7.5-3.357 7.5-7.5s-3.357-7.5-7.5-7.5h-30.149c-12.878 0-23.354-10.477-23.354-23.354v-40.692c0-4.143-3.357-7.5-7.5-7.5s-7.5 3.357-7.5 7.5v40.692c-.001 21.149 17.205 38.354 38.354 38.354z"/></g></g></svg>