<?xml version="1.0" encoding="iso-8859-1"?>
<!-- Generator: Adobe Illustrator 19.0.0, SVG Export Plug-In . SVG Version: 6.00 Build 0)  -->
<svg version="1.1" id="Capa_1" xmlns="http://www.w3.org/2000/svg" xmlns:xlink="http://www.w3.org/1999/xlink" x="0px" y="0px"
	 viewBox="0 0 511.999 511.999" style="enable-background:new 0 0 511.999 511.999;" xml:space="preserve">
<g>
	<g>
		<path d="M293.604,85.676L275.501,67.57c-1.406-1.407-3.314-2.197-5.303-2.197h-55.11c-4.142,0-7.5,3.358-7.5,7.5
			s3.358,7.5,7.5,7.5h52.003l13.711,13.711v95.079l-13.711,13.711h-95.079l-13.711-13.711V94.085l13.711-13.711h8.896
			c4.142,0,7.5-3.358,7.5-7.5s-3.358-7.5-7.5-7.5h-12.003c-1.989,0-3.897,0.79-5.303,2.197l-18.104,18.104
			c-1.407,1.406-2.197,3.314-2.197,5.303v136.201c0,1.989,0.79,3.896,2.197,5.303l18.104,18.105
			c1.406,1.407,3.314,2.197,5.303,2.197h101.292c1.989,0,3.897-0.79,5.303-2.197l18.104-18.104c1.407-1.406,2.197-3.314,2.197-5.303
			V90.979C295.801,88.99,295.011,87.082,293.604,85.676z M280.802,224.072l-13.711,13.711h-95.079l-13.71-13.711v-13.696
			l5.301,5.301c1.406,1.407,3.314,2.197,5.303,2.197h101.292c1.989,0,3.897-0.79,5.303-2.197l5.301-5.301V224.072z"/>
	</g>
</g>
<g>
	<g>
		<path d="M181.387,279.517l-18.103-18.104c-1.406-1.407-3.314-2.197-5.303-2.197H56.688c-1.989,0-3.897,0.79-5.303,2.197
			l-18.104,18.104c-1.407,1.407-2.197,3.314-2.197,5.303V421.02c0,1.989,0.79,3.896,2.197,5.303l18.104,18.104
			c1.406,1.407,3.314,2.197,5.303,2.197H157.98c1.989,0,3.897-0.79,5.303-2.197l18.104-18.104c1.407-1.407,2.197-3.314,2.197-5.303
			V284.82C183.584,282.831,182.794,280.924,181.387,279.517z M59.794,274.216h95.079l13.71,13.711v95.079l-13.71,13.711H59.795
			l-13.71-13.711v-95.079h-0.001L59.794,274.216z M168.585,417.914l-13.711,13.711H59.795l-13.71-13.711v-13.696l5.301,5.301
			c1.406,1.407,3.314,2.197,5.303,2.197h101.292c1.989,0,3.897-0.79,5.303-2.197l5.301-5.301V417.914z"/>
	</g>
</g>
<g>
	<g>
		<path d="M342.793,279.517l-18.104-18.104c-1.406-1.407-3.314-2.197-5.303-2.197h-35.557c-4.142,0-7.5,3.358-7.5,7.5
			s3.358,7.5,7.5,7.5h32.45l13.711,13.711v95.079l-13.711,13.711h-95.078l-13.711-13.711v-95.079l13.711-13.711h28.81
			c4.142,0,7.5-3.358,7.5-7.5s-3.358-7.5-7.5-7.5h-31.917c-1.989,0-3.897,0.79-5.303,2.197l-18.104,18.104
			c-1.407,1.406-2.197,3.314-2.197,5.303V421.02c0,1.989,0.79,3.897,2.197,5.303l18.104,18.104c1.406,1.407,3.314,2.197,5.303,2.197
			h101.292c1.989,0,3.897-0.79,5.303-2.197l18.104-18.104c1.407-1.406,2.197-3.314,2.197-5.303V284.82
			C344.99,282.831,344.2,280.923,342.793,279.517z M329.99,417.914l-13.711,13.711h-95.078l-13.711-13.711v-13.696l5.301,5.301
			c1.406,1.407,3.314,2.197,5.303,2.197h101.292c1.989,0,3.897-0.79,5.303-2.197l5.301-5.301V417.914z"/>
	</g>
</g>
<g>
	<g>
		<path d="M504.689,279.518l-18.104-18.104c-1.406-1.407-3.314-2.197-5.303-2.197H379.99c-1.989,0-3.897,0.79-5.303,2.197
			l-18.104,18.104c-1.407,1.407-2.197,3.314-2.197,5.303v136.201c0,1.989,0.79,3.896,2.197,5.303l18.104,18.104
			c1.406,1.407,3.314,2.197,5.303,2.197h19.92c4.142,0,7.5-3.358,7.5-7.5s-3.358-7.5-7.5-7.5h-16.813l-13.71-13.711v-13.696
			l5.301,5.301c1.406,1.407,3.314,2.197,5.303,2.197h101.292c1.989,0,3.897-0.79,5.303-2.197l5.301-5.301v13.696l-13.711,13.711
			h-44.087c-4.142,0-7.5,3.358-7.5,7.5s3.358,7.5,7.5,7.5h47.193c1.989,0,3.897-0.79,5.303-2.197l18.104-18.104
			c1.407-1.406,2.197-3.314,2.197-5.303V284.821C506.886,282.832,506.096,280.925,504.689,279.518z M491.886,383.005l-13.71,13.711
			h-95.079l-13.71-13.711v-95.079l13.71-13.711h95.079l13.71,13.711V383.005z"/>
	</g>
</g>
<g>
	<g>
		<path d="M251.829,107.818c-3.998-1.07-8.113,1.302-9.186,5.304l-7.801,29.121l-7.801-29.121c-0.878-3.279-3.85-5.559-7.245-5.559
			s-6.366,2.28-7.245,5.559l-7.801,29.121l-7.801-29.121c-1.072-4.001-5.184-6.374-9.186-5.304
			c-4.001,1.073-6.375,5.185-5.304,9.186l15.046,56.163c0.878,3.279,3.85,5.559,7.245,5.559s6.366-2.28,7.245-5.559l7.801-29.121
			l7.801,29.121c0.878,3.279,3.85,5.559,7.245,5.559s6.366-2.28,7.245-5.559l15.046-56.163
			C258.205,113.003,255.83,108.89,251.829,107.818z"/>
	</g>
</g>
<g>
	<g>
		<path d="M129.627,360.579l-15.046-56.163c-0.878-3.279-3.85-5.559-7.245-5.559s-6.366,2.28-7.245,5.559l-15.046,56.163
			c-1.072,4.002,1.302,8.114,5.303,9.186c4.003,1.071,8.113-1.302,9.186-5.304l2.417-9.021h10.769l2.417,9.021
			c0.898,3.351,3.928,5.561,7.24,5.561c0.643,0,1.296-0.083,1.946-0.257C128.324,368.693,130.698,364.58,129.627,360.579z
			 M105.969,340.44l1.366-5.1l1.366,5.1H105.969z"/>
	</g>
</g>
<g>
	<g>
		<path d="M432.793,298.858h-14.088c-4.142,0-7.5,3.358-7.5,7.5v56.163c0,4.142,3.358,7.5,7.5,7.5h14.088
			c9.526,0,17.276-7.75,17.276-17.275v-36.612C450.068,306.607,442.318,298.858,432.793,298.858z M435.068,352.745
			c0,1.255-1.021,2.275-2.276,2.275h-6.588v-41.163h6.588c1.255,0,2.276,1.021,2.276,2.275V352.745z"/>
	</g>
</g>
<g>
	<g>
		<path d="M274.187,313.858c0.188,3.975,3.47,7.14,7.492,7.14c4.142,0,7.5-3.358,7.5-7.5v-2.672c0-6.599-5.369-11.968-11.968-11.968
			h-16.94c-6.599,0-11.968,5.369-11.968,11.968v19.145c0,6.599,5.369,11.968,11.968,11.968h13.908v13.082h-10.885
			c-0.188-3.975-3.47-7.141-7.492-7.141c-4.142,0-7.5,3.358-7.5,7.5v2.672c0,6.599,5.369,11.968,11.968,11.968h16.94
			c6.599,0,11.968-5.369,11.968-11.968v-19.145c0-6.599-5.369-11.968-11.968-11.968h-13.908v-13.081H274.187z"/>
	</g>
</g>
<g>
	<g>
		<path d="M149.211,282.771c-4.142,0-7.5,3.358-7.5,7.5v0.862c0,4.142,3.358,7.5,7.5,7.5s7.5-3.358,7.5-7.5v-0.862
			C156.711,286.129,153.353,282.771,149.211,282.771z"/>
	</g>
</g>
<g>
	<g>
		<path d="M311.939,282.771c-4.142,0-7.5,3.358-7.5,7.5v0.862c0,4.142,3.358,7.5,7.5,7.5s7.5-3.358,7.5-7.5v-0.862
			C319.439,286.129,316.081,282.771,311.939,282.771z"/>
	</g>
</g>
<g>
	<g>
		<path d="M474.665,282.771c-4.142,0-7.5,3.358-7.5,7.5v0.862c0,4.142,3.358,7.5,7.5,7.5c4.142,0,7.5-3.358,7.5-7.5v-0.862
			C482.165,286.129,478.807,282.771,474.665,282.771z"/>
	</g>
</g>
<g>
	<g>
		<path d="M132.199,85.676L114.095,67.57c-1.406-1.407-3.314-2.197-5.303-2.197H7.5c-4.142,0-7.5,3.358-7.5,7.5s3.358,7.5,7.5,7.5
			h98.185l13.711,13.711v95.079l-13.711,13.711H7.5c-4.142,0-7.5,3.358-7.5,7.5s3.358,7.5,7.5,7.5h101.292
			c1.989,0,3.897-0.79,5.303-2.197l5.301-5.301v13.696l-13.71,13.711H7.5c-4.142,0-7.5,3.358-7.5,7.5s3.358,7.5,7.5,7.5h101.292
			c1.989,0,3.897-0.79,5.303-2.197l18.104-18.104c1.407-1.407,2.197-3.314,2.197-5.303V90.979
			C134.396,88.99,133.606,87.082,132.199,85.676z"/>
	</g>
</g>
<g>
	<g>
		<path d="M455.5,85.676L437.397,67.57c-1.406-1.407-3.314-2.197-5.303-2.197H330.801c-1.989,0-3.897,0.79-5.303,2.197
			l-18.104,18.104c-1.407,1.407-2.197,3.314-2.197,5.303v136.201c0,1.989,0.79,3.896,2.197,5.303l18.104,18.105
			c1.406,1.407,3.314,2.197,5.303,2.197h101.292c1.989,0,3.897-0.79,5.303-2.197l18.104-18.104c1.407-1.407,2.197-3.314,2.197-5.303
			V90.979C457.697,88.99,456.907,87.083,455.5,85.676z M320.197,94.085l13.71-13.711h95.079l13.71,13.711v95.079l-13.71,13.711
			h-95.079l-13.71-13.711V94.085z M442.697,224.072l-13.71,13.711h-95.079l-13.71-13.711v-13.696l5.301,5.301
			c1.406,1.407,3.314,2.197,5.303,2.197h101.291c1.989,0,3.897-0.79,5.303-2.197l5.301-5.301V224.072z"/>
	</g>
</g>
<g>
	<g>
		<path d="M486.673,215.677c1.406,1.407,3.314,2.197,5.303,2.197h12.523c4.142,0,7.5-3.358,7.5-7.5s-3.358-7.5-7.5-7.5h-9.417
			l-13.71-13.711V94.085l13.71-13.711h9.417c4.142,0,7.5-3.358,7.5-7.5s-3.358-7.5-7.5-7.5h-12.523c-1.989,0-3.897,0.79-5.303,2.197
			l-18.104,18.104c-1.407,1.407-2.197,3.314-2.197,5.303v136.201c0,1.989,0.79,3.896,2.197,5.303l18.104,18.104
			c1.406,1.407,3.314,2.197,5.303,2.197h12.523c4.142,0,7.5-3.358,7.5-7.5c0-4.142-3.358-7.5-7.5-7.5h-9.417l-13.71-13.711v-13.696
			L486.673,215.677z"/>
	</g>
</g>
<g>
	<g>
		<path d="M100.023,88.93c-4.142,0-7.5,3.358-7.5,7.5v0.862c0,4.142,3.358,7.5,7.5,7.5s7.5-3.358,7.5-7.5V96.43
			C107.523,92.288,104.165,88.93,100.023,88.93z"/>
	</g>
</g>
<g>
	<g>
		<path d="M262.75,88.93c-4.142,0-7.5,3.358-7.5,7.5v0.862c0,4.142,3.358,7.5,7.5,7.5s7.5-3.358,7.5-7.5V96.43
			C270.25,92.288,266.892,88.93,262.75,88.93z"/>
	</g>
</g>
<g>
	<g>
		<path d="M425.477,88.93c-4.142,0-7.5,3.358-7.5,7.5v0.862c0,4.142,3.358,7.5,7.5,7.5s7.5-3.358,7.5-7.5V96.43
			C432.977,92.288,429.619,88.93,425.477,88.93z"/>
	</g>
</g>
<g>
</g>
<g>
</g>
<g>
</g>
<g>
</g>
<g>
</g>
<g>
</g>
<g>
</g>
<g>
</g>
<g>
</g>
<g>
</g>
<g>
</g>
<g>
</g>
<g>
</g>
<g>
</g>
<g>
</g>
</svg>
