<?xml version="1.0" encoding="utf-8"?>
<!-- Generator: Adobe Illustrator 23.0.1, SVG Export Plug-In . SVG Version: 6.00 Build 0)  -->
<svg version="1.1" id="color" xmlns="http://www.w3.org/2000/svg" xmlns:xlink="http://www.w3.org/1999/xlink" x="0px" y="0px"
	 viewBox="0 0 512 512" style="enable-background:new 0 0 512 512;" xml:space="preserve">
<style type="text/css">
	.st0{fill:#FFFFFF;}
	.st1{fill:#F44336;}
	.st2{fill:#FFC107;}
</style>
<circle class="st0" cx="376.5" cy="363.1" r="107.1"/>
<path class="st1" d="M373.3,234.7c-76.5,0-138.7,62.2-138.7,138.7S296.9,512,373.3,512S512,449.8,512,373.3S449.8,234.7,373.3,234.7
	z M381.3,357.3c25,0,45.3,20.3,45.3,45.3S406.3,448,381.3,448h-24c-8.8,0-16-7.2-16-16c0-8.8,7.2-16,16-16h24
	c7.4,0,13.3-6,13.3-13.3s-6-13.3-13.3-13.3h-24c-8.8,0-16-7.2-16-16v-58.7c0-8.8,7.2-16,16-16h53.3c8.8,0,16,7.2,16,16
	c0,8.8-7.2,16-16,16h-37.3v26.7H381.3z"/>
<path class="st2" d="M373.3,192c11,0,21.7,1.2,32.1,3l16.7-17.1c9.1-9.3,3.9-25-9-27l-127.9-19.6L227.8,9.2
	C222.6-2,204.2-2,198.9,9.2l-57.4,122.2L13.6,150.9c-12.9,2-18.1,17.7-9,27l93,95.3l-22,134.8c-2.2,13.1,11.8,23.1,23.5,16.6
	l92.9-51.3C192,273.3,273.3,192,373.3,192L373.3,192z"/>
</svg>
